<svg width="401" height="350" viewBox="0 0 401 350" xmlns="http://www.w3.org/2000/svg">
  <title>Logo HeyListen!</title>
  <path d="M295.495 281.64c-.843 1.237-1.63 2.53-2.585 3.653-.9 1.012-1.293 2.248-2.192 3.204-.17.168-.337.45-.393.674-.28.957-.843 1.687-1.405 2.418-1.124 1.35-1.8 2.922-2.698 4.383-1.63 2.53-3.147 5.172-5.058 7.532-.562.73-1.01 1.574-1.46 2.36-.394.675-.788 1.35-1.294 1.967-.505.618-.9 1.292-1.292 1.966-.506.787-.506.9.28 1.686-.336 1.237-.955 2.248-1.966 3.09-.45.395-.73.957-.956 1.575-.337 1.068-.9 1.967-1.18 3.035-.28 1.124-.73 2.135-1.124 3.26-.337.898-.955 1.63-1.63 2.303-.45.45-1.01.73-1.685.787-.28 0-.562-.056-.787.056-1.686 1.012-3.428.113-5.17.056-.17 0-.394-.112-.563-.28-.393-.45-.955-.62-1.405-.9-.9-.674-1.686-.506-2.416.056-1.068.787-2.136.62-3.26.28-.505-.167-1.01-.448-1.573-.73-.28-.393-.618-.786-.9-1.18-.505-.112-.9.057-1.404-.224-.9-.506-1.07-1.517-1.744-2.136 0-.618-.112-1.236 0-1.854.057-.394.057-.73-.224-1.068-.675.337-.562 1.124-.843 1.686-.114-.056-.226 0-.282-.056-.394-1.068-.73-2.136-.956-3.26-.056-.28-.056-.506-.168-.73-.17-.338-.17-.562 0-.9.112-.224.224-.562.112-.73-.337-.506-.17-.9.056-1.293.113-.168.225-.393.225-.562-.056-.73.28-1.292.45-1.967.056-.225.056-.506 0-.787-.057-.282-.45-.394-.62-.282-.336.28-.617.562-.954.843-1.124.957-2.304 1.968-3.484 2.924-.676.562-1.406 1.068-2.137 1.573-2.023 1.574-4.16 2.867-6.52 3.934-.73.34-1.404.676-2.078 1.07-.9.56-1.855.955-2.923 1.01-.168 0-.393.113-.562.226-.9.562-1.798.955-2.866 1.067-.225 0-.618.057-.73.225-.338.562-.956.562-1.518.73-1.236.282-2.416.563-3.653.844-.112 0-.28 0-.28.056-.507.787-1.406.562-2.08.9-.337.168-.675.224-1.068.224-.674 0-1.35.056-1.91.506-.282.168-.788.28-1.012.168-.675-.337-1.46-.168-2.136-.393-.393-.113-.787 0-1.18 0-1.293 0-2.698.168-3.822-.843-.112-.113-.224-.28-.393-.28-.843 0-1.293-.563-1.855-1.013-.224-.168-.562-.28-.843-.28-1.236.168-2.19-.45-3.147-1.125-.112-.112-.28-.168-.393-.28-.9-.956-1.967-1.012-3.147-.844-.28.057-.506.113-.787.17-.73.168-1.46.11-2.136-.282-.73-.393-1.46-.73-2.36-.28-.17.11-.506-.057-.787-.113-.112-.28-.225-.62-.337-.956-.225-.056-.562-.168-.843-.225-.45-.112-.9-.28-1.293.225-.168.17-.562.17-.843.17-.392-.057-.842-.17-1.18-.338-1.18-.45-2.303-.957-3.427-1.463-.225-.112-.506-.224-.73-.224-.17 0-.562.168-.506.224.112.62-.675 1.18-.225 1.855.112.17 0 .45 0 .787-.225-.17-.393-.226-.45-.338-.393-.562-.786-.843-1.573-.562-.62.168-1.35-.113-2.08.337.337.45.618.843.955 1.18.28.337.674.618 1.01.955-1.235.45-1.235.45-1.235 1.742-1.012.113-2.023 0-3.035-.337-.393-.112-.843-.337-1.18-.28-.9.168-1.405-.113-1.742-.956-.843.282-1.46 0-2.192-.505-.954-.674-1.91-1.292-2.81-1.967-1.123-.843-2.078-1.91-3.034-2.922-1.124-1.237-2.19-2.473-3.203-3.766-.506-.618-.787-1.348-1.18-2.023-.17-.225-.337-.45-.675-.787-.45.956.057 1.686 0 2.417 0 .787.057 1.574.057 2.36 0 .787-.057 1.574-.057 2.36 0 .788-.056 1.574-.112 2.36-.056.844-.17 1.687-.28 2.474-.113.788-.338 1.518-.507 2.305-.17.73-.394 1.517-.62 2.248-.224.73-.56 1.46-.842 2.192-.28.73-.618 1.46-.955 2.135-.337.675-.45 1.518-1.237 2.08 0-.28-.056-.45 0-.618.28-.73.675-1.405.956-2.136.506-1.124 1.068-2.304 1.405-3.484.955-3.372 1.46-6.8 1.292-10.34-.057-.788-.226-1.575-.226-2.305 0-.843.113-1.63-.056-2.473-.28-1.46-.506-2.922-1.01-4.383-.057-.112-.17-.224-.338-.393-.113.337-.17.618-.338.843-.393.506-.224 1.012.17 1.405.673.73.56 1.517.392 2.36-.112.675-.337 1.293-.505 1.967-.17-.28-.34-.562-.676-1.124-.112.9.056 1.686-.674 2.024-.113.056-.056.28-.113.45-.112 1.01-.224 2.08-.393 3.09-.112.843-.674 1.518-.674 2.417 0 .167-.28.28-.394.448-.393.394-.618.787-.056 1.293.225.17.056.732-.225.732-.618.056-.787.505-.955.9-.225.504-.45 1.066-.618 1.628-.17.45-.338.843-.787 1.124-.225.17-.45.45-.562.73-1.068 1.968-2.023 3.99-3.147 5.902-1.068 1.855-2.305 3.597-3.822 5.17-.618.618-1.236 1.237-1.854 1.91-.787.9-1.686 1.687-2.754 2.305-.113.057-.225.057-.28.114-4.44 3.765-5.453 3.71-8.544 4.833.057.45-.112.787-.562.9-.73.168-1.517.28-2.304.45-.73.167-1.405.336-2.08.617-1.01.45-2.022.73-3.146.674-.113 0-.225-.056-.28 0-1.35.9-2.924.562-4.385.675-1.46.112-2.753-.506-4.158-.62-.45-.055-.956-.11-1.405-.167-.73-.113-1.462-.17-2.136-.45-5.283-1.967-10.116-4.664-14.387-8.43-1.07-.955-2.25-1.854-3.26-2.922-1.012-1.068-1.8-2.304-2.698-3.428-.562-.787-1.068-1.686-1.63-2.473-.73-1.068-1.46-2.136-2.192-3.26-.224-.337-.393-.73-.562-1.124-.168-.338-.337-.62-.505-.956-.28-.45-.62-.843-.843-1.293-1.124-2.19-2.248-4.326-3.148-6.63-.056-.112-.168-.225-.337-.45-.168.225-.393.394-.393.562-.113.562-.506.9-.956 1.18-.674.338-1.405.73-2.08 1.068-1.797.843-3.596 1.63-5.394 2.417-.562.28-1.18.393-1.798.225-.675-.17-1.35-.113-2.024-.113-1.46.055-2.922-.17-4.158-1.068-.225-.17-.45-.225-.73-.28-1.575-.34-2.642-1.294-3.317-2.755-.168-.394-.45-.675-.674-1.068-.11-.113-.28-.226-.28-.338.056-1.124-.787-1.293-1.574-1.574-.955-.337-1.854-.787-2.64-1.46-.675-.62-1.125-1.35-1.294-2.25-.505-2.078-.955-4.158-1.405-6.237-.112-.392-.224-.786-.28-1.067-.338-.28-.563-.112-.675 0-1.236 1.068-2.754 1.686-4.16 2.417-.167.112-.448.112-.56.28-.563.788-1.406 1.012-2.192 1.462-1.237.674-2.586 1.124-3.878 1.686-.28.112-.618.225-.562.618.618.393 1.18-.225 1.91-.056-.112.45-.56.562-.842.73-1.012.506-1.012.506-1.518 1.518-.506.168-1.068.28-1.573.506-.62.168-1.18.393-1.743.618-.674.337-1.348.45-2.135.393-1.238-.168-2.36.113-3.204 1.124-.787.842-1.686 1.573-2.754 2.022-.9.394-1.012.394-1.574-.562-.056-.112-.112-.168-.225-.28-.505.056-1.067.112-1.63.112-.9-.056-1.18-.394-1.18-1.293 0-.338 0-.675-.056-1.125-.506-.056-.9-.056-1.292-.056-.338 0-.73.055-1.068.055-.562 0-.787-.393-.45-.955.056-.113.17-.28.225-.394-.562-.562-1.068-1.124-1.63-1.742.113-.28.17-.506.28-.787-.055-.056-.11-.168-.167-.224-1.293-.675-2.698-1.012-4.047-1.574-.393-.17-.73-.338-1.124-.563-.505-.337-1.01-.73-1.517-1.124-.17-.112-.337-.28-.45-.45-.786-1.292-1.742-2.472-2.135-3.99-.337-1.292-.787-2.585-1.18-3.877-.057-.113-.057-.225-.113-.28-1.012-1.125-1.18-2.643-1.8-3.992-.336-.674-.617-1.46-.505-2.247 0-.17 0-.338-.056-.45-.676-.843-.507-1.967-.844-2.98-.28-.954-.45-1.91-.675-2.92-.055-.282-.223-.563-.28-.9-.112-.506-.337-1.012-.393-1.518-.168-3.035-.562-6.014-1.18-8.992.225-1.012-.337-2.024-.17-3.09.058-.34 0-.732-.055-1.07C.9 267.873.9 264.67.73 261.522c-.056-1.853-.28-3.708-.393-5.62 0-.28-.056-.505-.056-.786 0-5.9-.056-11.8 0-17.702 0-2.08.057-4.16.057-6.238 0-1.462.168-2.923.225-4.384.112-2.416.168-4.777.224-7.193.057-2.98.057-5.958.225-8.936.114-1.573 0-3.202.395-4.776.168-.674.112-1.46.224-2.192.28-2.36 1.123-4.552 1.91-6.744.393-1.067.843-2.135 1.293-3.203.73-1.63 1.686-3.09 3.034-4.327 1.124-1.012 2.36-1.686 3.878-1.855.506-.056 1.012-.225 1.518-.393 1.236-.45 2.416-.506 3.71-.17.954.282 1.91.507 2.92.507 1.35 0 2.586.28 3.542 1.405 1.01.393 1.742 1.292 2.64 1.854.844.562 1.687 1.293 1.462 2.53-.056.168 0 .45.113.618.786 1.348.505 2.753.393 4.158-.112 1.293-.393 2.585-.28 3.878 0 .112 0 .225-.057.337-.113.9-.28 1.855-.394 2.754-.056.956-.056 1.856-.056 2.81 0 3.822-.562 7.588-.337 11.41v.337c-.507 2.866-.226 5.844-.62 8.71-.055.506 0 1.068 0 1.574 0 4.44 0 8.88.057 13.32 0 2.08.056 4.16.225 6.238.056.675-.28 1.293-.056 1.967.224.62.112 1.35.168 2.023l.17 2.024c.055.674.055 1.348.11 2.023l.17 2.023.168 3.597c.113 3.484.394 6.968.787 10.453.112 1.01.168 2.08.168 3.147 0 1.855.28 3.653.506 5.45.337 2.7.562 5.396.9 8.094.167 1.46.448 2.865.673 4.326.056.394.113.843.17 1.237.055.786.223 1.517.898 2.19.337-.223.674-.448.955-.73 2.417-2.303 4.496-4.945 6.238-7.81 1.012-1.63 2.136-3.204 3.26-4.778.9-1.292 1.35-2.697 1.293-4.27 0-.338 0-.73-.056-1.07-.224-1.628-.056-3.202.057-4.832.057-.955.225-1.854.62-2.754.392-.9.56-1.91.786-2.867.45-1.798 1.742-2.978 3.147-3.99.73-.506 1.573-.787 2.416-1.124.336-.113.73-.17 1.067-.17 1.293-.056 2.585 0 3.878-.056 1.18-.056 2.135.394 3.035 1.012.618.393 1.236.787 1.854 1.124 1.35.843 2.698 1.63 3.99 2.473.225.112.45.337.675.393 2.584 1.124 4.326 3.203 6.124 5.227.225.28.394.618.562.9.787 1.46 1.8 2.81 3.035 3.933.226.225.45.45.62.674.224.337.28.675.055 1.012-.168.28-.337.505-.562.786-.168.225-.393.394-.393.675-.112 1.236-.9 2.192-1.573 3.203-.62.9-.787 1.91-1.012 2.923-.674 2.64-1.46 5.225-1.967 7.866-.618 3.204-.73 6.52-.506 9.835.113 1.35.618 2.418 1.518 3.317 1.236 1.35 2.472 2.698 3.765 3.99.45.45.955.787 1.46 1.124.732.507 1.406 1.125 1.968 1.8.393.505.843.9 1.293 1.348.112.113.28.057.562.113 0-.28.056-.505 0-.73-.394-1.405-.843-2.81-1.18-4.215-.338-1.236-.563-2.53-.787-3.82-.28-1.968-.505-3.935-.842-5.846-.113-.844-.45-1.575-1.35-1.912-.505-.225-.674-.787-.674-1.292 0-.17.338-.338.562-.562-.618-.9-1.292-1.8-1.967-2.754.168-.337.393-.73.618-1.18.505.28.955.618 1.46.28.282.394.507.787.73 1.125.62-.057.282-.675.62-.9.056 0 .168-.056.224 0 2.136 1.462 4.328 2.923 6.407 4.496 1.123.844 2.303 1.687 3.203 2.755.786.9 1.46 1.855 2.247 2.81.562.675 1.124 1.35 1.743 2.023.168.17.45.28.618.45.17.112.394.28.394.45.225 1.18 1.068 2.023 1.742 2.922 1.293 1.63 2.586 3.26 4.16 4.664.786.675 1.404 1.518 2.135 2.248.45.506.9 1.068 1.406 1.462 1.236.9 2.023 2.248 3.315 3.034.282.17.563.45.788.45.956-.056 1.518.562 2.136 1.068.955.73 2.135 1.124 3.316 1.405.618.113 1.348.057 2.023 0 1.068-.112 2.19-.337 3.26-.56 1.01-.226 2.08-.34 2.922-1.013.337-.28.505-.562-.057-1.012 1.068-.112 1.91-.505 2.417-1.18.45-.674 1.293-1.067 1.517-1.967.113-.45.62-.843.956-1.18.393-.393.787-.787.9-1.405.055-.225.168-.506.28-.73.562-1.18 1.18-2.305 1.742-3.485.056-.112.17-.28.17-.45.336-2.19.842-4.383.56-6.687-.055-.45-.112-.954-.224-1.404-.17-.843-.337-1.63-.506-2.417-.056-.338-.112-.73-.28-1.068-1.012-1.855-1.63-3.934-2.81-5.733-.394-.62-.563-1.293-.956-2.136-.787-.28-1.35-.956-1.46-1.967-.058-.394-.34-.787-.676-1.012-.562-.45-.9-1.01-1.236-1.573-.843-1.574-2.136-2.81-3.204-4.16-.786-.955-1.573-1.91-2.472-2.978-.675-.056-1.405-.28-1.686-1.18-.675-.393-1.35-.787-2.023-1.068-.843-.337-1.686-.505-2.53-.786-1.404-.506-2.866-1.012-4.27-1.518-.282-.112-.506-.28-.675-.562 1.293.337 2.64.618 3.934.956.618.168 1.124.112 1.63-.17.056 0 .056-.055.112-.11-.506-.45-1.01-.844-1.686-1.07-1.124-.393-2.192-.955-3.26-1.46-.674-.28-1.348-.506-2.135-.394-.168.056-.337.056-.45 0-1.01-.618-2.247-.45-3.315-.73-.675-.113-1.293-.338-1.967-.562-.17-.057-.337-.113-.45-.113-.955.17-1.742-.28-2.53-.618-1.516-.62-3.202-.788-4.776-1.35-.563-.225-1.18-.393-1.743-.618-.28-.112-.562-.28-.506-.674.058-.28.507-.28.957-.057.112.058.28.17.393.226.225.17.45.506.73.562.45.113.9 0 1.574 0-.225-.337-.337-.506-.506-.674-.056-.056-.112-.056-.112-.113-1.068-.73-1.068-.73-1.124-2.022-.17-.112-.28-.225-.506-.28-.843-.282-1.292-.787-1.18-1.743 0-.28-.337-.562-.393-.843-.113-.28-.113-.618-.17-.9-.055-.56-.392-1.067-.11-1.685.055-.17 0-.45-.057-.618-.675-1.462-1.293-2.924-2.192-4.272-.113-.17-.17-.45-.17-.73.057-.732.057-1.406-.392-2.08-.225-.394-.337-.9-.17-1.35.057-.168.114-.393.114-.617-.113-1.74.73-3.034 1.686-4.383 1.18-1.742 2.866-2.866 4.44-4.102 1.573-1.237 3.203-2.53 5.057-3.372.842-.394 1.573-1.012 2.416-1.462 5.226-2.865 10.734-4.888 16.466-6.35 1.855-.45 3.765-.842 5.732-.898.9-.056 1.743-.17 2.642-.225 5.114-.28 10.003.618 14.612 2.754 1.067.507 2.135 1.07 3.147 1.743 1.686 1.124 2.922 2.64 3.82 4.44.282.618.732 1.124 1.07 1.686v2.64c-.788.674-1.687 1.46-2.586 2.248.055.112.055.28.11.45.34.843.34 1.01-.28 1.46-1.067.788-2.19 1.63-3.315 2.36-.45.338-1.012.62-1.574.732-1.235.225-2.36.73-3.652.9-1.35.167-2.64.673-3.99.898-2.248.393-4.552.674-6.8.955-.843.113-1.63.225-2.473.338-1.855.225-3.71.394-5.62.62-2.135.224-4.27.448-6.35.786-2.81.45-5.62 1.067-8.374 1.854-.336.113-.617.28-1.067.506.225.28.394.506.562.618.675.394 1.35.787 2.08 1.068 1.798.73 3.596 1.405 5.395 2.08 3.54 1.292 7.08 2.472 10.62 3.71 3.205 1.122 6.352 2.47 9.387 3.932 2.08 1.068 4.214 2.08 6.238 3.26 1.01.562 1.854 1.35 2.866 1.91 2.08 1.293 4.272 2.474 6.183 3.935 1.124.842 2.192 1.74 3.203 2.752.843.843 1.742 1.63 2.585 2.473 1.013.9 2.024 1.8 2.755 2.98.337.505.562 1.123 1.236 1.348.114.056.17.112.226.224.225.787.956 1.237 1.405 1.855.45.618 1.013 1.18 1.238 1.967.056.168.224.28.393.505.338-.45.17-.9.057-1.237-.618-2.753-.955-5.563-1.18-8.373-.17-2.248-.45-4.496-.562-6.688-.17-3.26-.28-6.575-.393-9.835 0-.73 0-1.46-.057-2.192-.056-.618-.224-.843-.843-.9-.45-.055-.955-.055-1.405-.055-2.978 0-5.957.056-8.935.056-.225 0-.562-.055-.675-.224-.393-.674-1.01-.618-1.63-.618-.9 0-1.742.056-2.64 0-.9 0-1.743-.112-2.586-.45.563-.674 1.462-.28 2.137-.674-.28-.618-.956-.168-1.237-.506-.056-.056-.112-.168-.112-.224.112-.338.225-.787-.113-1.012-.505-.337-.562-.843-.73-1.35.393-.336.73-.673 1.18-1.067-.9-.337-1.63-.618-2.36-.9-.113-1.404 0-1.46 1.01-2.022 2.024-1.124 4.216-1.798 6.464-2.248.505-.112 1.01-.225 1.517-.393 2.416-.73 4.89-1.012 7.362-1.405 1.066-.17 2.134-.45 3.202-.73.955-.282 1.46-.9 1.517-1.912.28-2.53.56-5.058.9-7.587.392-2.697.842-5.338 1.347-8.036.28-1.46.62-2.98.956-4.44.955-3.878 2.19-7.643 3.596-11.296 1.123-2.866 2.304-5.676 3.877-8.373.618-1.124 1.068-2.36 1.518-3.597.224-.618.562-.956 1.124-1.237.392-.17.785-.338 1.123-.506.337-.225.73-.394 1.067-.675 1.686-1.687 3.428-3.373 4.665-5.452.955-1.63 2.473-2.36 4.27-2.473.507-.056 1.013-.112 1.575-.168.168 0 .28-.057.45-.057 1.067.113 1.63 1.068 2.416 1.574.45.28.45.9.45 1.46v2.36c0 .676.168 1.294.73 1.856.45.45.73 1.012.787 1.686.225 2.585.506 5.17.73 7.812.338 4.608.28 9.16.28 13.768v4.047c-.055 3.26-.167 6.463-.223 9.722-.057 1.967 0 3.99-.113 5.957-.112 1.518.113 2.98 0 4.496.843.338 1.63.225 2.36.17 1.405-.057 2.81-.282 4.215-.338 2.586-.17 5.17-.45 7.756-.28 1.573.055 3.147 0 4.664-.057.562 0 1.18-.17 1.405.618.057.113.28.17.394.17.73 0 1.125.45 1.518 1.067-.056.562-.73 1.18-.168 1.855.056.112-.113.562-.28.674-.45.337-.957.618-1.463.843-.955.336-1.91.56-2.866.786-.224.056-.505 0-.73.056-.168 0-.45.056-.56.17-.732 1.01-1.8.954-2.81.785-.9-.112-1.743-.224-2.586.113-.057 0-.113.056-.17.056-1.292.056-2.584.225-3.764.787-.225.112-.506 0-.787 0-1.8.056-3.653.168-5.45.225-.226 0-.507.112-.788.112-.562 1.686-.394 3.372-.394 5.058-.11 3.71-.167 7.418-.223 11.127v3.878c.056 2.53 0 5.002.112 7.53.224 3.54.28 7.082.898 10.622.562 3.316 1.35 6.52 2.64 9.667.507 1.292 1.238 2.473 2.137 3.428 1.18 1.292 2.698 1.91 4.552 1.405.675-.17 1.293-.337 1.967-.562.45-.113.675-.45.73-.955v-.45c-.055-1.798-.112-3.54-.168-5.34 0-.392.056-.842.056-1.235.057-1.18.225-2.417.225-3.597 0-1.967.337-3.822.9-5.676.618-2.248 1.404-4.496 2.135-6.688 1.35-4.27 3.26-8.374 5.058-12.476 1.573-3.653 3.316-7.194 5.564-10.453 1.01-1.405 1.854-2.866 2.866-4.27.674-.957 1.517-1.856 2.248-2.755.786-.9 1.517-1.855 2.304-2.754.45-.506 1.068-.843 1.573-1.292.562-.45 1.124-.9 1.63-1.462 1.068-1.348 2.473-2.36 4.103-3.09.618-.282 1.01-.62 1.405-1.125.73-.9 1.517-1.742 2.304-2.53.337-.336.787-.448 1.292-.785.056.28.112.45.168.73.506.056 1.124.17 1.18.9.45.168.73.505.956.9.393-.114.843-.17 1.18-.282.112.112.225.168.225.224.055.394.11.843.11 1.293.338.17.732.28 1.013.562.28.28.45.674.73 1.068.618-.225 1.124-.618 1.8-.28.223.11.673.055.898-.114.675-.504 1.237-.336 1.912-.055.168.113.393.17.562.225.337 1.012.337 1.012 1.404 1.742-.168 1.293.338 2.53.62 3.765.392 1.967.448 3.934.392 5.9-.112 4.048-.9 7.982-2.08 11.803-.393 1.35-.786 2.698-1.236 4.047-.337.955-.786 1.798-1.236 2.697-.393.9-.9 1.8-.955 2.81 0 .225-.113.393-.17.618-.954 1.967-1.797 3.99-2.865 5.9-1.63 2.867-3.316 5.677-5.058 8.43-.9 1.406-1.967 2.7-2.98 3.99-.448.563-.898 1.125-1.01 1.912-.056.28-.28.562-.45.787-.28.338-.73.62-1.01.956-.282.337-.45.843-.732 1.18-.955 1.012-1.967 2.024-2.98 2.98-.954.898-1.91 1.74-2.865 2.64-.337.337-.674.618-.73 1.18.674.73 1.573.787 2.472.843 1.237.112 2.53.168 3.766.056.956-.057 1.912-.394 2.81-.843 1.518-.73 2.98-1.462 4.44-2.305 2.36-1.404 4.44-3.09 6.463-4.89 2.248-2.022 4.384-4.158 6.463-6.35 2.642-2.866 5.227-5.788 7.643-8.935 2.697-3.54 4.945-7.306 7.193-11.184 1.63-2.867 3.035-5.845 4.44-8.768 1.517-3.203 2.81-6.52 4.158-9.778.226-.506.34-1.124.395-1.686.056-.9.45-1.574 1.01-2.192.62-.675 1.07-1.518 2.08-1.8.225-.055.394-.504.62-.673.055-.056.448.056.505.17.28.448.224.785-.28 1.01-.507.225-.563.506-.395.956.394.954.506 1.91.562 2.865.056.955.337 1.967.506 2.922.056.225.056.506.17.562.617.336.392.898.448 1.404 0 .225 0 .394-.055.618-.112.394-.056.73.28 1.012.45.45.507 1.012.507 1.574.056.843.056 1.685.056 2.472 0 .45-.28.9-.17 1.35.058.336 0 .56-.055.842-.056 1.124-.674 2.023-.9 3.09-.224 1.07-.56 2.137-.73 3.204-.28 1.462-.45 2.867-.73 4.328l-1.012 5.058c-.223 1.124-.504 2.19-.504 3.596.337-.45.505-.73.73-1.067.056.057.112.113.112.17-.28 2.19-.674 4.327-.9 6.518-.11 1.35 0 2.698.058 4.047.056.618.112 1.236 0 1.854-.113.674-.057 1.348.45 1.91.786-.225 1.292-.787 1.74-1.293.788-.843 1.52-1.742 2.193-2.64 1.573-2.137 3.146-4.328 4.72-6.464.506-.674 1.068-1.292 1.573-1.91.225-.282.45-.62.62-.9 1.29-2.135 2.64-4.27 3.932-6.407.225-.393.45-.843.675-1.236.45-.73.787-1.517 1.63-2.08.45-.336.843-.898 1.01-1.517.114-.45.45-.786 1.125-.786-.337 1.292-1.292 2.19-1.686 3.484.28.282.617.62.955.956.393-.618.618-1.292 1.292-1.63.843.562.9.562.506 1.293-.112.224-.337.392-.112.786.282-.225.563-.394.956-.675.337.114.787.282 1.236.395 0 .168.057.337 0 .45-.45.9-.955 1.742-1.405 2.585-.056.168-.056.393-.168.786 1.01-.618 1.18-1.686 1.966-2.19.337.055.393.223.28.56-.055.17-.112.394-.112.563 0 .167.338.336.506.223.113-.056.225-.112.225-.168.28-1.237 1.517-1.8 2.023-2.866.225-.507.618-1.013 1.35-.676l-.563.056zm-83.905-5.45l-.057-.057c-.112.618-.168 1.236-.337 1.855-.056.28-.225.618-.28.9-.563 2.81-1.125 5.62-1.406 8.485-.28 3.09-.393 6.126-.168 9.216 0 .28.056.505.505.56.113-.167.28-.336.45-.504 1.798-2.866 3.484-5.79 5.058-8.824.618-1.18 1.124-2.36 1.686-3.484.563-1.124 1.125-2.248 1.406-3.484.168-.675.393-1.293.73-1.91 1.405-2.98 2.53-6.07 3.485-9.162 1.012-3.147 2.024-6.238 2.642-9.497.28-1.35.562-2.754.787-4.103.055-.28.11-.506.11-.787 0-.674-.504-1.067-1.123-.9-.337.114-.73.226-1.01.395-.9.618-1.856 1.18-2.586 1.967-1.685 1.798-3.203 3.71-4.27 5.957-.057.056-.17.112-.282.168-.056-.28-.112-.562-.168-.9-.562-.167-.9.114-1.068.45-.73 1.406-1.967 2.53-2.53 4.103-.392 1.068-1.067 2.023-1.29 3.147-.17 1.124-1.182 1.967-1.07 3.204 0 .168-.168.337-.28.506-.17.28-.337.505-.45.786-.225.9-.45 1.8-.618 2.642.393.506.787.393 1.18.112.337-.168.618-.506.956-.843zm42.88 24.165c-.675.787-1.462 1.405-1.967 2.304-.113.224-.225.505-.394.673-.844.956-1.406 2.08-1.8 3.26-.168.506-.336.955-.393 1.46-.056.563-.393 1.07-.562 1.63-.224.563-.393 1.07-.112 1.63.112.17 0 .506-.056.73-.113.338-.225.676-.28 1.013 0 .112.055.28.11.45.338-.057.62-.17.9-.225-.056-.45-.28-.955-.112-1.236.674-1.573.9-3.316 1.91-4.777.338-.505.563-1.124.788-1.686.337-.73.618-1.46.9-2.134.505-.956 1.01-1.91 1.067-3.09zM85.03 59.597c.11.394.168.843.392 1.18 1.237 1.91 1.855 4.047 2.754 6.126 1.124 2.53 2.08 5.114 2.866 7.756.562 1.797.843 3.652 1.18 5.506.45 2.192.843 4.384 1.18 6.632.506 3.09 1.237 6.126 1.518 9.273.28 2.698.787 5.34 1.124 8.037.28 2.136.506 4.27.73 6.35.282 3.035.62 6.014.844 9.05.224 3.315.393 6.686.618 10.002.112 2.135.28 4.27.393 6.406.055 1.236.112 2.53.112 3.765 0 .34 0 .62.056.957.056.562.393.843.955.786.843-.168 1.63-.337 2.473-.562 3.035-.84 6.126-1.74 9.16-2.64.225-.056.394-.112.62-.168.504-.17.785-.506.785-1.068.114-1.012.226-1.967.282-2.98l.338-6.237c.168-1.91.337-3.82.562-5.732.28-2.81.505-5.62.9-8.374.28-2.022.617-3.99 1.01-6.012.394-2.192.843-4.384 1.237-6.632.504-2.754.954-5.563 1.404-8.317.337-2.08.562-4.16.9-6.183.336-1.967.73-3.878 1.18-5.845.336-1.46.73-2.922 1.123-4.383.562-2.08 1.46-4.048 2.304-6.015.957-2.248 2.25-4.327 3.654-6.406 1.517-2.306 3.203-4.497 5.227-6.408.844-.787 1.574-1.63 2.473-2.36.9-.73 1.743-1.518 2.698-2.136 2.642-1.798 5.452-3.26 8.543-4.16 1.012-.28 2.023-.448 3.09-.56 1.125-.113 1.968.505 2.7 1.348.954 1.124 1.63 2.417 1.853 3.765 1.012.955 1.91 1.798 2.81 2.697.225.225.45.45.618.73.62 1.35 1.462 2.642 1.686 4.16.394 2.19.73 4.44.62 6.687-.114 2.023-.058 4.046-.226 6.07-.17 1.854-.28 3.71-.675 5.563-.45 2.304-.675 4.665-1.068 6.97-.62 3.54-1.35 7.08-2.023 10.62-.45 2.36-.9 4.72-1.406 7.025-.225 1.124-.562 2.248-.787 3.316-.28 1.35-.562 2.642-.73 3.99-.226 1.574-.788 3.09-.788 4.777 0 .843-.394 1.686-.563 2.585-.505 2.192-.674 4.44-.955 6.632-.28 1.967-.562 3.934-.787 5.845-.056.618 0 1.236 0 1.91.562.28 1.068 0 1.574 0 .448 0 .898-.168 1.404-.112-.73.28-1.46.506-2.192.787-.225.112-.506.112-.73.28-.17.17-.338.394-.338.62 0 .28.28.45.562.392.73-.168 1.46-.168 2.192-.112.506.056 1.18-.225 1.46.562.395 0 .844.112 1.238 0 .843-.225 1.686-.506 2.528-.73.17-.057.394-.057.675-.057-.338.787-.788 1.293-1.518 1.63-.338.112-.675.28-.675.843.28-.056.506-.056.73-.112.844-.338 1.63-.62 2.417-1.068.394-.225.73-.337 1.18-.337.62 0 1.237.056 1.743-.45.056-.056.45.112.843.225-.62.618-1.18 1.01-1.518 1.573-.337.507-.337 1.238-.618 1.744-.225.45-.73.73-1.124 1.067-.225.226-.506.45-.73.732 1.854-.225 3.203-1.63 4.72-2.417.225.17.45.338.675.506l2.19-.673c.957-.28 1.63.45 1.35 1.405-.112.45-.393.843-.674 1.236-.45.562-.955 1.068-1.404 1.686-.618.843-1.237 1.686-1.8 2.53-.56.842-1.123 1.74-1.74 2.584-.73 1.012-1.35 2.08-2.136 3.035-1.012 1.236-2.192 2.192-3.485 3.09-1.967 1.293-4.158 2.193-6.35 2.98-.506.224-1.012.45-1.518.73-.28.9-.224 1.742-.168 2.53.224 3.708.56 7.36 1.46 10.902.506.393.955.393 1.405.224 1.63-.563 3.26-1.068 4.72-2.08 2.867-1.967 5.677-4.102 8.093-6.63.956-1.013 1.91-2.08 2.923-3.036.9-.9 1.35-1.91 1.18-3.26-.168-1.517-.28-3.034-.168-4.496.113-1.854-.112-3.653-.056-5.45 0-.62.113-1.237.506-1.856.337.225.618.394 1.012.62.505-1.463.45-2.924.618-4.385.056-.674.112-1.405-.056-2.023-.506-1.798-.338-3.597-.057-5.395.45-2.924 1.18-5.734 2.022-8.487 1.518-4.777 3.09-9.498 5.452-13.938 1.01-1.854 1.798-3.877 3.035-5.62 1.853-2.753 3.82-5.45 6.35-7.7 1.63-1.46 3.37-2.753 5.113-4.1 1.293-.957 2.53-1.968 3.878-2.924.675-.505 1.406-.842 2.305-.898 1.068-.056 2.192-.056 3.203-.562.45-.17 1.012-.056 1.574-.056s1.236.112 1.686-.113c.955-.392 1.742-.223 2.53.226.898.506 1.797.787 2.81.506.336-.056.73 0 1.067.056 1.798.45 3.653.9 5.45 1.405.45.113.844.394 1.237.675.675.45 1.35.786 2.136.843 1.293.113 2.136 1.012 2.866 1.968.17.224.225.562.225.9.055.673.28 1.29.617 1.91.787 1.236 1.124 2.64 1.293 4.102.28 1.967-.113 3.934-.28 5.9-.17 1.518-.788 2.923-.9 4.44-.057.675-.28 1.293.056 1.968.112.28 0 .674-.394.73-.45.113-.562.45-.674.787-.337.955-.618 1.855-.955 2.81.168.17.28.28.45.506-.057.73-.45 1.35-.788 1.968-.337.618-.674 1.18-.674 1.91 0 .45-.28.787-.617 1.068-.562.45-.787 1.012-.618 1.63.112.506 0 .9-.28 1.35-.282.505-.507 1.01-.788 1.516-.056.113-.056.225-.113.28-.955 1.462-1.46 3.205-2.19 4.778-.62 1.46-1.406 2.866-2.418 4.16-.618.786-1.236 1.573-1.236 2.64 0 .17-.17.394-.28.562-1.07 1.8-2.024 3.653-3.205 5.395-1.292 1.967-2.753 3.766-4.158 5.677-1.124 1.517-2.248 3.034-3.43 4.495-1.29 1.573-2.696 3.034-4.213 4.383-.562.506-1.068 1.124-1.518 1.798-.337.507 0 1.406.675 1.687.394.17.787.28 1.18.28.62 0 1.237-.11 1.855-.167.9-.113 1.742-.225 2.642-.394.45-.056.9-.168 1.348-.337 1.18-.45 2.36-.844 3.485-1.35.506-.168.955-.45 1.405-.674 1.18-.73 2.304-1.405 3.428-2.136.787-.505 1.517-1.124 2.36-1.573 2.08-1.18 4.215-2.304 6.295-3.484 1.573-.843 3.147-1.686 4.664-2.586 1.46-.9 2.98-1.46 4.608-1.967 1.8-.562 3.54-1.236 5.17-2.19.113-.058.282-.17.394-.226 1.124-.337 2.023-1.068 2.754-1.967.17-.225.506-.337.73-.562.45.506.506.955.394 1.517l-.337 2.192c0 .225-.113.45 0 .618.45.787.112 1.405-.506 1.855-.45.393-.732.843-1.013 1.405-.786 1.405-1.573 2.81-2.416 4.215-2.022 3.26-4.214 6.463-6.8 9.33-1.123 1.235-2.08 2.584-3.26 3.764-2.078 2.024-4.382 3.88-6.8 5.51-.954.617-1.91 1.235-2.92 1.797-2.474 1.293-4.89 2.81-7.588 3.597-.506.168-.956.393-1.46.618-2.924 1.124-5.902 2.023-9.106 2.023-1.517 0-3.034.225-4.496.28-.73.057-1.46.057-2.19.057-.788 0-1.52-.168-2.362.056-.45.113-.955.057-1.405-.056-2.53-.45-4.89-1.348-7.08-2.81-1.406-.955-2.923-1.854-4.44-2.81-.282.17-.62.28-.9.45-1.46.955-2.754 2.023-3.877 3.372-1.068 1.35-2.248 2.585-3.766 3.54-1.292.843-2.416 1.8-3.653 2.642-.45.337-.955.562-1.46.843-.226.11-.45.224-.675.392-1.35 1.18-2.923 1.742-4.665 1.967-1.686.224-3.372.56-5.114.898-1.293.225-2.473.113-3.597-.562-.9-.562-1.854-1.18-2.697-1.854-.563-.45-1.125-.618-1.856-.506-1.292.112-2.585.225-3.934.17-4.383-.114-8.542-1.125-12.364-3.373-2.135-1.237-3.877-2.98-5.45-4.89-2.586-3.147-4.216-6.8-5.284-10.734-.393-1.35-.787-2.698-1.46-3.935-.338-.562-.507-.674-1.125-.505-1.573.45-3.147.843-4.664 1.348-2.754.9-5.508 1.855-8.318 2.81-.337.113-.674.225-1.01.394-.62.28-.9.73-.957 1.46-.168 1.855-.393 3.71-.562 5.62-.225 2.136-.393 4.272-.843 6.35-.45 1.968-.562 4.048-.955 6.015-.73 3.765-1.405 7.474-2.585 11.127-1.293 3.934-2.98 7.7-5.62 10.96-2.754 3.37-6.014 6.125-10.116 7.642-3.035 1.124-6.182 1.46-9.385.9-2.08-.394-4.047-1.07-5.9-2.024-.563-.28-1.125-.562-1.52-1.068-.224-.28-.56-.393-.898-.562-.674-.337-1.35-.674-1.854-1.35-.338-.448-.9-.842-1.462-1.123-1.067-.675-2.023-1.462-2.585-2.642-.28-.562-.337-.562-1.35-.393-.11-.28-.223-.562-.392-.843-.11-.17-.168-.394-.336-.506-.337-.17-.618-.28-.843-.618-.505-.73-1.123-1.35-1.573-2.023-.45-.675-.843-1.462-1.63-1.8-.112-.055-.28-.224-.28-.336-.113-.732-.787-1.125-1.125-1.63-.393-.62-.843-1.18-1.405-1.63-.28-.225-.505-.563-.56-.9-.17-.73-.676-1.292-1.182-1.798-.45-.45-.9-.843-1.124-1.46-.223-.45-.56-.844-.954-1.238-.562-.505-1.012-1.18-1.405-1.854-.11-.225-.28-.394-.45-.618-.617-.73-1.235-1.405-1.797-2.192-.225-.337-.562-.73-.562-1.068-.055-1.124-1.067-1.686-1.348-2.754-.843.618-1.46.056-2.192-.056-.168-.393-.393-.843-.562-1.236.17-.506.562-.843.45-1.405-.17-.618.393-1.01.562-1.573.17-.45.562-.843.955-1.292-.056-.28-.112-.675-.168-1.068-.056-.337-.394-.45-.73-.337-.73.224-.788.224-1.012-.394-.113-.28-.28-.562-.28-.9-.058-.73-.17-1.18-1.125-1.123-.28 0-.675-.393-.956-.73-.45-.506-.843-1.012-1.686-.956-.168 0-.45-.225-.618-.393-.337-.338-.618-.675-1.01-1.068.11-.113.28-.225.448-.337.9-.676.956-.788.394-1.8-.225-.393-.45-.73-.338-1.18.17-.618-.112-1.124-.393-1.686.45-1.012.788-2.08 1.406-3.09.45-.73 1.18-1.293 1.967-1.743 1.068-.56 2.192-1.01 3.372-1.235.506-.113 1.01-.225 1.517-.394.337-.11.73-.28.9-.56.73-1.125 1.854-1.63 3.034-2.136 1.8-.73 3.597-1.405 5.45-1.967 3.71-1.124 7.42-2.136 11.13-3.26 2.022-.618 4.1-1.124 6.18-1.686 1.237-.28 2.36-.73 3.598-1.123.674-.225 1.348-.45 2.08-.674 2.022-.675 4.045-1.293 6.125-1.967.11-.056.167-.056.28-.113.618-.224.9-.618.955-1.292 0-1.123.112-2.303.17-3.427.11-4.047.11-8.15.055-12.196 0-1.124-.17-2.304-.225-3.428-.112-1.855-.112-3.766-.225-5.62-.112-1.63-.28-3.204-.506-4.834-.28-2.304-.618-4.552-.955-6.8-.17-1.292-.45-2.585-.675-3.878-.057-.393-.17-.786-.28-1.236-.507-3.09-1.07-6.182-1.575-9.273-.112-.844-.225-1.63-.393-2.474-.506-3.203-1.237-6.35-1.518-9.554-.225-2.416-.394-4.776 0-7.193.112-.675.112-1.35.168-2.024.112-.843.225-1.63.618-2.417.337-.675.394-1.406.28-2.136-.167-.956.057-1.855.676-2.642.393-.505.618-1.067.674-1.742.056-.393.225-.787.337-1.236.225-1.068.73-1.855 1.574-2.642.9-.786 1.63-1.742 2.304-2.753.507-.732 1.18-1.238 1.968-1.463 1.573-.505 3.203-.9 4.833-1.292.563-.113 1.125 0 1.575.506 0 .282.337.506.674.787zm-39.34 122.57c.056.675.28 1.012.56 1.293.9.9 1.744 1.8 2.643 2.698 1.573 1.574 3.203 3.147 5.114 4.327 1.18.73 2.36 1.574 3.597 2.192 2.08 1.068 4.27 1.91 6.63 2.248.9.113 1.63-.056 2.362-.562.393-.337.843-.618 1.18-1.068 2.08-2.64 3.372-5.62 4.215-8.823.563-2.08.844-4.27 1.293-6.407.113-.618.17-1.236-.112-1.854h-.505c-3.653.788-7.306 1.63-10.96 2.305-4.776.9-9.496 1.967-14.217 3.035-.562.056-1.124.393-1.8.618zm156.458-71.316c-.506-.11-.787.114-1.012.45-.9 1.35-1.854 2.642-2.64 4.047-1.406 2.585-2.98 5.114-4.047 7.924-.563 1.462-1.238 2.867-1.856 4.328-.225.562-.45 1.124-.337 1.855.225-.056.393-.112.45-.225.786-.9 1.573-1.798 2.248-2.81.843-1.18 1.573-2.472 2.304-3.71.73-1.235 1.404-2.528 1.966-3.877 1.01-2.415 1.967-4.832 2.866-7.248.168-.28.056-.506.056-.73zm60.92 132.687c1.46.675 2.922 1.35 4.552 1.574 1.517.226 2.922.057 4.103-1.01 1.854-1.574 3.315-3.43 4.383-5.677 1.35-2.922 2.473-5.957 3.485-9.048.73-2.248 1.406-4.496 2.08-6.744.562-1.966 1.124-3.876 1.686-5.843.168-.62.112-1.293.337-1.855.73-1.855 1.124-3.822 1.63-5.732 1.236-4.665 2.36-9.386 3.54-14.106.338-1.405.675-2.81 1.012-4.27.28-1.238.506-2.474.955-3.654.9-2.417 1.293-4.946 1.967-7.42 1.068-3.708 1.967-7.417 2.98-11.182.224-.9.505-1.8.73-2.698.168-.618.224-1.236.45-1.798 1.235-3.766 2.472-7.53 3.764-11.296.957-2.81 1.856-5.62 3.092-8.374.506-1.18 1.012-2.417 1.518-3.597.562-1.348 1.068-2.697 1.686-4.046.618-1.35 1.01-2.81 1.798-4.104.787-1.292 1.293-2.697 2.023-4.046 1.405-2.473 2.754-4.89 4.27-7.306 1.463-2.304 2.98-4.496 4.61-6.688 1.854-2.585 3.765-5.114 5.732-7.586 1.348-1.686 2.81-3.26 5-3.822.057 0 .113-.056.17-.056 1.18-.618 2.08-1.405 1.966-2.923 0-.282 0-.62.113-.9.673-1.742.56-3.484.336-5.226-.112-1.012-.45-1.91-1.068-2.754-.393-.506-.843-1.068-1.292-1.574-1.068-1.236-2.136-2.416-2.586-4.046-.168-.674-.674-1.236-1.405-1.293-.955-.056-1.63-.618-2.304-1.18-.617-.562-1.29-1.067-1.966-1.573-.505-.394-1.124-.618-1.742-.562-.955.112-1.854.28-2.64.787-1.63.954-2.755 2.36-3.767 3.932-.786 1.293-1.63 2.53-2.53 3.766-2.134 2.81-4.326 5.62-6.46 8.43-.34.45-.676.955-1.07 1.348-1.685 1.686-3.146 3.597-5 5.17-1.125.956-2.136 2.136-3.204 3.204-1.685 1.574-3.315 3.147-4.832 4.89-.675.73-1.293 1.517-1.91 2.247l-4.385 5.058c-1.068 1.237-2.248 2.305-3.653 3.09-1.236.676-2.472 1.294-3.82 1.8-2.193.787-4.497 1.405-6.858 1.63-2.023.168-3.54-.675-4.44-2.473-.393-.73-.73-1.46-.842-2.304-.17-.956-.337-1.967-.562-2.923-.618-2.416-.956-4.945-1.124-7.418-.337-4.89-.394-9.78.112-14.668.17-1.518.337-3.036.45-4.497.168-2.192-.17-4.384-.394-6.575-.168-1.574-.73-3.035-1.517-4.384-.618-1.01-1.35-1.91-2.36-2.473-.73-.392-1.405-.898-1.967-1.46-.225-.225-.45-.45-.73-.562-1.013-.45-1.968-.9-2.98-1.35-.56-.28-1.236-.392-1.854-.28-1.124.28-2.304.113-3.428.057-1.068-.057-1.855.224-2.585.786-.56.395-1.123.957-1.573 1.52-1.293 1.46-2.192 3.146-3.203 4.776-.618.955-1.124 2.023-1.855 2.866-2.024 2.53-3.317 5.395-4.553 8.374-.506 1.18-.9 2.36-1.18 3.54-.394 1.517-.73 3.035-1.012 4.552-.562 2.642-.955 5.34-1.068 8.037-.056 2.192.17 4.383.45 6.52.17 1.29.45 2.584.562 3.877.168 1.742.617 3.372 1.067 5.058.393 1.404.787 2.81 1.63 4.046.168.225.168.506.28.73.338.787.62 1.518 1.012 2.305.955 1.855 2.247 3.485 3.54 5.115 1.742 2.248 3.82 4.102 6.406 5.395 1.91.955 3.878 1.742 6.014 2.08.955.168 1.967.168 2.978.336 1.8.28 3.54.225 5.283-.056.226-.056.507-.056.788 0 .506.113 1.01.056 1.573 0 1.07-.056 2.193-.056 3.26-.056.507 0 .956.056 1.294.506.112.674-.17 1.292-.506 1.91-.73 1.518-1.518 2.98-2.248 4.44-1.8 3.54-3.653 7.025-5.395 10.622-.9 1.855-1.743 3.765-2.53 5.732-1.123 2.754-2.19 5.508-3.26 8.318-.392 1.068-.842 2.135-1.18 3.26-.786 2.528-1.516 5.113-2.19 7.642-.9 3.204-1.743 6.463-2.642 9.667-.45 1.63-.956 3.316-1.46 4.946-.844 2.698-1.406 5.452-2.418 8.093-.056.168-.056.28-.112.448-.62 2.642-1.237 5.283-1.8 7.925-.167.843-.336 1.742-.448 2.585-.17 1.068-.338 2.135-.45 3.26-.056.617 0 1.236.17 1.854.898 3.09 2.64 5.62 5.28 7.53.676.506 1.238 1.068 1.744 1.8 1.123 1.63 2.584 2.865 4.382 3.652.337.168.675.337.956.562.674.618 1.46.9 2.36.955 1.18.114 2.192-.055 3.147-.617.112-.056.28-.056.45-.056.112.225.224.393.28.562.506.167.956-.563 1.518-.114-.056.225-.112.45-.17.787.9-.056 1.63.113 2.025.956-.113.28-.28.56-.394.898-.168.28-.168.393-.056.45zM399.182 7.164c.394-2.024-.337-3.653-1.686-5.115-.168-.17-.337-.282-.505-.394-1.74-1.068-3.54-1.012-5.394-.337-.9.336-1.8.786-2.754 1.18-.506.224-1.068.45-1.518.73-3.54 2.08-6.52 4.833-9.16 7.924-1.068 1.292-2.192 2.473-2.98 3.99-.898 1.742-2.078 3.372-3.202 5.002-1.068 1.63-2.417 3.147-3.203 5-.282.676-.957 1.238-1.406 1.856-.506.674-1.068 1.35-1.35 2.08-.224.674-.505 1.236-.842 1.798-.787 1.292-1.574 2.585-2.023 4.046-.114.28-.282.562-.395.843-.9 2.078-1.91 4.158-2.697 6.35-1.18 3.37-2.473 6.743-3.71 10.115-.842 2.417-1.63 4.833-2.416 7.306-.73 2.418-1.46 4.89-2.135 7.363-.73 2.53-1.35 5.058-2.08 7.53-.9 2.923-1.91 5.846-2.53 8.88-.28 1.35-.617 2.754-.954 4.103-.337 1.35-.618 2.754-1.068 4.103-.787 2.303-1.35 4.72-1.967 7.08-.618 2.36-1.236 4.72-1.855 7.137-.786 2.922-1.63 5.845-2.247 8.767-.73 3.484-1.518 6.913-2.473 10.34-.394 1.35-.843 2.698-1.518 3.935-.505.898-.955 1.853-1.405 2.81-.786 1.572-1.91 2.865-3.034 4.157-1.405 1.686-2.305 3.597-2.698 5.733-.225 1.124-.337 2.248-.112 3.428.393 1.91.786 3.765 1.124 5.676.224 1.124.786 2.023 1.63 2.754.505.45 1.067.9 1.404 1.46.62.956 1.462 1.63 2.417 2.136.62.338 1.125.73 1.687 1.124.28.17.618.394.955.506 1.63.675 3.26 1.35 4.89 2.08 1.63.674 3.26 1.067 5 1.124.45 0 .9.112 1.406.168.675.113 1.35.28 1.967.394 1.068.168 2.192.112 3.26-.057 1.798-.28 2.922-1.46 4.046-2.753.563-.675.957-1.518 1.18-2.36.676-2.417.844-4.834.45-7.307-.224-1.405-.392-2.81-.505-4.215-.168-2.416-.225-4.777-.337-7.193-.056-1.405-.112-2.81-.056-4.16.112-2.134.28-4.27.45-6.406.168-1.686.337-3.316.56-4.946.17-1.517.45-2.98.676-4.496.28-1.798.45-3.597.73-5.395.506-3.372 1.237-6.688 2.024-9.947.786-3.148 1.517-6.295 2.472-9.386.73-2.304 1.518-4.552 2.248-6.8 1.35-3.99 3.09-7.868 4.61-11.802.954-2.53 2.303-4.89 3.258-7.474.056-.17.17-.28.225-.393 1.18-2.304 2.36-4.664 3.54-6.968.73-1.405 1.406-2.81 2.136-4.16l3.542-6.406c1.124-1.967 2.19-4.046 3.26-6.07.898-1.74 1.854-3.483 2.753-5.282.674-1.35 1.293-2.697 1.967-4.046.618-1.237 1.35-2.473 1.91-3.766 1.18-2.753 2.305-5.507 3.373-8.26.674-1.687 1.292-3.43 1.91-5.115.338-.9.338-1.855-.224-2.698-.112-.17-.168-.394-.28-.562.168-.843.393-1.63.562-2.473-.506-.562-.562-1.405-1.405-1.91.28-.844.393-1.63.505-2.36zm-37.203 262.17c.167-.226.392-.395.56-.563-.168-.224-.45-.45-.45-.617-.055-.394.17-.843.057-1.237-.168-.73-.112-1.348.28-1.91.395-.62-.224-1.293.057-1.967.225-.507.338-1.125.45-1.63.056-.226.112-.507 0-.732-.17-.45-.056-.787.112-1.18 1.068-2.417 2.08-4.89 3.822-6.97.337-.392.618-.842.9-1.29.11-.17.336-.282.055-.62-.337.225-.618.45-.955.73-1.798 1.406-3.597 2.867-5.395 4.272-.394.337-.843.618-1.18 1.012-1.462 1.405-2.754 2.978-3.878 4.664-.843 1.35-1.967 2.53-2.98 3.822-1.404 1.854-2.528 3.934-3.483 6.126-.337.786-.562 1.686-.9 2.472-.393.843-.842 1.686-1.236 2.53-.168.393-.337.786-.45 1.18-.393 1.348-.786 2.697-1.123 4.046-.225.73-.394 1.517-.675 2.248-.28.843-.674 1.63-.955 2.473-.506 1.46-1.124 2.922-1.855 4.27-.112.226-.28.507-.505.563-.73.168-.956.9-1.35 1.35-.28 0-.505-.058-.786-.058-.337.787-.674 1.518-1.01 2.304-.676 1.63-.676 1.63-1.35 2.192-.113-.337-.28-.674-.337-1.01-.113-1.52-.225-3.036-.28-4.553-.114-1.966-.058-3.933-.226-5.957-.17-2.248-.394-4.44-.618-6.687-.113-.956-.113-1.855-.28-2.81-.507-2.754-.957-5.564-1.8-8.262-.674-2.135-1.35-4.27-2.36-6.294-1.967-3.878-4.384-7.474-7.7-10.397-1.404-1.236-2.866-2.416-4.327-3.596-1.125-.9-2.417-1.35-3.88-1.462-2.696-.28-5.28.225-7.866.956-.394.113-.73.338-1.068.563-.843.562-1.405 1.405-2.023 2.192-.787 1.067-1.518 2.248-2.473 3.26-1.63 1.63-2.98 3.483-4.44 5.282-.112.112-.337.28-.056.562.955-.45 1.573-1.294 2.192-2.08.45-.563 1.01-1.068 1.517-1.574.112-.113.337-.225.562 0-.393 1.686-1.293 3.26-2.023 4.833-.28.673-.618 1.292-1.012 1.854-.393.618-.955 1.124-1.35 1.686-.504.786-.954 1.63-1.403 2.416-.394.675-.73 1.35-1.068 2.08-.226.45-.563.842-.563 1.46.787-.786 1.517-1.517 2.304-2.247.282.167.563.28.844.448l.674-.337c.225-.11.45-.224.675.113-1.35 2.36-2.754 4.72-4.44 6.913-.28.337-.506.674-.674 1.068-.058.112 0 .28.055.562.225-.17.45-.28.562-.394.337-.45.506-1.01 1.124-1.18.113-.056.226-.225.282-.393.225-1.013 1.236-1.35 1.854-2.08.225-.282.73-.282 1.124-.338.337.337.675.618 1.012.956-1.293.786-1.293.786-1.35 2.023.62.394 1.013-.786 1.743-.224-.787.9-1.517 1.798-2.304 2.754.226.225.394.393.507.562.112-.056.28-.113.28-.17.788-1.29 1.912-2.303 2.98-3.427.505-.562 1.01-1.068 1.517-1.63.393-.393.843-.618 1.405-.393.898.955 1.235 2.192 1.572 3.372 0 .056.17.112.28.168.282-.28.563-.562.844-.843.17.112.28.168.28.224.058.45.17.956.114 1.405-.056.56.562.73.618 1.236.056.28.056.618.056.955-.168 2.305.056 4.61-.618 6.8-.056.17 0 .45.056.62.394.786.337 1.63.113 2.472-.28 1.124.168 2.248-.113 3.372-.056.28.17.562.28.9.057.168.226.336.17.393-.337.45.168.9.056 1.348-.112.506-.17 1.012-.28 1.518-.057.337-.282.73-.282 1.067.056 1.91-.28 3.766-.45 5.62-.056.394-.112.956.057 1.237.562.787.337 1.63.393 2.416 0 .45-.112.956-.393 1.293-.62.843-.675 1.686-.62 2.697.226.113.395.225.563.28.225.058.113.563.562.282 0-.393 0-.786.057-1.18.056-.393-.113-.9.393-1.348.056.337.112.505.112.73.057 1.517.17 3.035.17 4.496 0 1.236-.113 2.473-.17 3.765 0 .62.113.73.956.9.112-.45.112-.9 0-1.35-.337-1.517-.675-3.034-.337-4.608.055-.224.055-.393.392-.393.225 1.012.506 1.967.674 2.98.113.56.113 1.123.73 1.404.17.113.226.45.338.675.225.506.506 1.012.73 1.574.17.392.338.73.506 1.123.843 1.854 1.686 3.71 3.26 5.057.393.338.674.675 1.236.45.787.393 1.462 1.012 1.63 1.91-.28.563-.506 1.125-.674 1.518-.506.28-.73-.506-1.237-.168.338.843.956 1.292 1.63 1.686.17.112.506.28.225.618-1.124-.618-2.36-1.012-3.035-2.304-.112-.17-.562-.225-.843-.28-.28-.058-.506.28-.393.56.11.225.224.45.392.62.562.56 1.124 1.067 1.63 1.572-.112.45-.337.843-.225 1.124.28.62.675 1.124 1.46 1.35 0-.394.058-.788.058-1.293.9.28 1.686.505 2.472.73.225-.337.45-.618.62-.843.56.225 1.01.506 1.516.562.562.056 1.124.225 1.63.45.618.225 1.292.45 1.91.674.113.056.225 0 .394-.056.168-.225.337-.45.45-.618-.45-.956-1.518-.394-2.08-.956.056-.337.113-.618.17-.9-.563-.224-1.07-.336-1.52-.617-.223-.113-.56-.338-.336-.732.676-.168 1.294 0 1.912.394.73.393 1.35 1.01 2.248.955 1.068-.73 1.068-.73 2.304-.787.618 0 1.236 0 1.855-.112.785-.112 1.516-.337 2.303-.562 2.248-.506 4.215-1.517 6.013-2.922.506-.394 1.012-.73 1.63-.843.28-.056.45-.168.562-.45.28-.673.73-.336 1.18-.168.28-.224.618-.505.9-.73-.057-.337-.113-.562-.226-.9h1.35c.168-.45.336-.786.45-1.18.786-.224.786-1.01 1.18-1.573.11-.17.28-.394.45-.394.617-.113.785-.62 1.066-1.068.394-.618.62-1.293 1.068-1.855 1.293-1.63 2.36-3.428 3.26-5.283 1.236-2.416 2.36-4.89 3.203-7.474.28-.955.617-1.91 1.01-2.81.563-1.18.73-2.36.844-3.653.056-.618.112-1.236.393-1.798.225-.45.28-.9.17-1.35-.17-.73-.17-1.404.448-2.022.225-.225.28-.675.28-1.012 0-.56-.055-1.123-.11-1.685-.282-.112-.507-.168-.676-.28.112-.563.337-1.07.224-1.462-.225-.73 0-1.35.17-1.967.224-.787.392-1.63.617-2.417.057-.17.113-.45.226-.506.843-.62.618-1.35.168-2.08-.224-.337-.337-.618-.224-1.01 0-.058.112-.17.168-.17.337.113.618.225.9.337.224-.504.056-.898-.17-1.066-.617-.394-.505-.843-.28-1.35.28-.617.393-1.348.843-1.798.62-.618.563-1.292.563-2.023 0-.112.168-.225.28-.393.17-.28.282-.562.45-.787-.168-.393-.337-.787-.45-1.124.788-.788.788-.788 1.293-2.024-.393-.506-1.067-.225-1.067-.843zm-47.21-89.414c.17.674.226 1.46.114 2.136-.17.73-.17 1.348-.057 2.08.394 2.078.675 4.214.956 6.35.112 1.01.618 1.854 1.236 2.64.28.394.617.73.842 1.125.618.956 1.237 1.912 1.91 2.867.338.45.788.787 1.237 1.18.224.225.505.393.73.562 1.236 1.123 2.473 2.19 3.99 2.92.787.395 1.63.732 2.417 1.125 3.372 1.855 7.025 2.867 10.902 3.09 2.36.17 4.72.058 6.968-.785 1.35-.506 2.698-1.068 4.046-1.63.17-.056.28-.28.45-.394.955-1.01 2.36-1.348 3.484-2.08.787.113 1.237-.336 1.742-.842.17-.17.45-.337.675-.393.618-.168 1.01-.56 1.35-1.01 1.18-1.518 2.36-3.092 3.033-4.89.225-.506.28-1.124.394-1.686.225-.843-.506-1.574-.17-2.417.057-.112-.448-.337-.505-.562-.112-.393 0-.843-.056-1.18-.11-.393-.56-.618-.505-1.124 0-.055 0-.11.057-.168.224-.45.056-.9-.113-1.348-.226-.675-.394-1.293 0-1.967.168-.338.112-.787-.113-1.012-.506-.45-.562-1.124-.843-1.686-.337-.62-.506-1.406-1.124-1.855l-2.698-1.855c-.562-.393-1.124-.73-1.46-1.405-.113-.28-.394-.506-.62-.674-1.292-.786-2.584-1.517-3.877-2.304-1.686-1.067-3.71-1.405-5.45-2.248-.114-.056-.282-.056-.45-.112-2.474-.506-4.946-1.293-7.363-2.023-1.798-.562-3.54-1.293-5.34-1.798-2.753-.843-5.62-1.012-8.485-1.518-1.124-.168-2.304-.112-3.428 0-1.07.056-2.08.337-2.867 1.124-.618.62-1.293 1.013-2.08 1.406-.9.45-1.854.9-2.753 1.517-1.124.787-1.18 1.405-.337 2.473.168.225.393.337.562.562.618.73 1.348 1.46 1.46 2.473.057.732.563 1.07 1.125 1.406.28.17.562.225.843.45.224.168.393.45.618.73-.505.45-1.123.73-1.236 1.518.225.562.675.843.787 1.236zM69.294 227.914c-.506.112-1.01.393-1.292.225-.618-.338-1.348-.114-2.023-.395-.45-.9-.9-1.854-1.967-2.19-1.124.56-2.19 1.066-3.034 1.91-.562.618-1.293.9-2.08 1.01-1.348.113-2.36.9-3.09 1.912-.787 1.068-1.743 2.08-2.754 2.922-.675.56-1.18 1.236-1.405 2.022-.28.9-.62 1.855.393 2.53.056.056.112.168.17.224.223.393.223.787-.114 1.124-.393.45-.843.787-1.405.955-.842.28-1.18.956-1.235 1.8 0 .28 0 .505.056.786.113.844.226 1.63.338 2.36 1.293 1.518 2.98 1.518 4.72 1.518.394.787 1.125 1.012 1.856 1.18.505.113 1.01.17 1.517.282.282.056.732.056.9.224.618.73 1.46.73 2.248.787.562.057 1.124.17 1.686.338 1.405.28 2.754.394 4.103-.224.337-.17.73-.225 1.01-.338.788-.337 1.687-.562 2.362-1.124 1.347-1.01 2.752-1.854 4.213-2.585.562-.28 1.124-.506 1.462-1.124.45-.73 1.18-1.124 2.023-1.292.337-.056.674-.224 1.01-.337.058-.28.058-.505.114-.674.393-1.35.45-2.642-.45-3.88-.28-.392-.393-.954-.506-1.46-.112-.45-.056-.955-.112-1.46-.28-.057-.73.11-.9-.338-.224-.562-.674-.9-1.18-1.124v-1.46c-.505.055-.9.167-1.292.11-.562-.11-.337-.842-.73-1.123-1.237 0-1.8-.787-2.08-1.91-1.068.28-1.854-.45-2.53-1.18zm221.65 52.153c1.01-.562 1.967-1.18 1.686-2.698-1.52 1.742-1.52 1.742-1.687 2.697zm44.678 57.21c.395-.393.62-.674 0-1.348v1.348zm-44.452-55.58c.337 0 .674-.338.562-.562-.057-.057-.225-.17-.225-.113-.17.17-.337.337-.45.506 0 0 0 .056.056.112l.058.057zm-1.293-3.71c-.112.113-.225.282-.337.45 0 .056.056.17.112.225.056.056.225.056.225 0 .112-.112.225-.28.337-.506-.112-.112-.28-.225-.337-.168zm5.45.17c-.055.112 0 .336 0 .617.45-.28.844-.505.788-1.01-.393-.057-.618.167-.787.392zm-.898 1.91v-.112c-.056 0-.225-.057-.28-.057-.17.17-.394.338-.226.73.17-.168.34-.336.507-.56zm-20.794-11.577c-.112-.113-.224-.28-.393-.337-.056 0-.17.168-.28.224.11.113.224.225.336.28.17-.055.225-.11.337-.167zM32.595 187.113c-.056 0-.225.057-.225.17-.112.168.28.505.506.392.056 0 .112-.112.225-.28-.168-.113-.336-.225-.505-.282zm260.99 83.793c.28.113.45 0 .45-.337-.17.112-.338.224-.45.336zm0 0l-.17.675h.057c.056-.224.112-.45.112-.674zM155.614 202.4l-.168-.338-.225.057c0 .11.056.223.056.336.112 0 .225-.056.337-.056zm29.336 55.58s-.055.057-.055.113c.112 0 .168.056.28.056 0 0 .057-.057.057-.113-.112 0-.17-.056-.28-.056zm107.398 24.897c0-.056-.056-.17-.056-.28-.057.055-.17.055-.225.167 0 .057.056.17.056.225.112 0 .225 0 .225-.113zm3.147-1.237c0-.168.056-.28.056-.45 0-.055-.11-.112-.167-.168-.057.113-.113.17-.113.28.056.114.17.282.225.395v-.057zM99.36 275.796c.056.056.112.168.225.225h.168c-.056-.056-.056-.168-.112-.168h-.28v-.056zm-69.856-98.46c0 .055.056.167.113.224.056-.057.112-.057.112-.113s-.057-.168-.113-.225l-.113.113zm118.58 175.396h-.112v.113l.112-.113zm149.097-84.017s.057.112.113.112.113-.056.113-.056c0-.055-.057-.168-.057-.224-.113 0-.17.056-.17.17zm-197.876 7.137c-.057-.056-.057-.17-.113-.225l-.11.113c.11 0 .167.056.28.056l-.056.056zm191.864.393c.056 0 .112.057.168.057 0-.057 0-.057-.056-.113 0 .055-.056.055-.112.055zm-76.15-9.048c.056-.056-.057-.168-.057-.28-.785.505-1.066 1.18-.673 2.303.225-.73.506-1.348.73-2.023zm-3.485 8.936c.057-.056.17-.056.225-.112 0-.056-.056-.168-.112-.224l-.113.112v.28c.057 0 0-.055 0-.055z" fill="#FFF" fill-rule="evenodd"/>
</svg>
