<svg xmlns="http://www.w3.org/2000/svg" width="624" height="100%" viewBox="0 0 623.6 850.4"><path d="M437.2 439.5c-1.1 1.5-2 3.1-3.2 4.5 -1.1 1.2-1.6 2.8-2.7 4 -0.2 0.2-0.4 0.5-0.5 0.8 -0.3 1.2-1 2.1-1.8 3 -1.4 1.7-2.2 3.7-3.3 5.5 -2 3.2-3.9 6.4-6.3 9.3 -0.7 0.9-1.3 1.9-1.8 3 -0.5 0.8-0.9 1.7-1.6 2.4 -0.6 0.7-1.1 1.6-1.6 2.4 -0.6 1-0.6 1.1 0.3 2.1 -0.4 1.5-1.2 2.8-2.4 3.9 -0.6 0.5-0.9 1.2-1.2 2 -0.4 1.3-1.1 2.4-1.5 3.8 -0.4 1.4-0.9 2.7-1.4 4 -0.4 1.1-1.2 2-2 2.8 -0.6 0.6-1.3 0.9-2.1 1 -0.3 0-0.7-0.1-0.9 0.1 -2.1 1.3-4.3 0.1-6.4 0.1 -0.2 0-0.5-0.2-0.7-0.3 -0.5-0.6-1.2-0.7-1.7-1.1 -1.1-0.8-2.1-0.6-3 0 -1.3 1-2.7 0.8-4.1 0.3 -0.7-0.2-1.3-0.6-2-0.9 -0.4-0.5-0.7-1-1.1-1.4 -0.6-0.1-1.1 0.1-1.7-0.3 -1.1-0.6-1.3-1.9-2.2-2.6 0-0.8-0.1-1.5 0-2.3 0.1-0.5 0.1-0.9-0.3-1.3 -0.8 0.4-0.7 1.4-1.1 2.1 -0.1 0-0.3 0-0.3-0.1 -0.5-1.3-0.9-2.6-1.2-4 -0.1-0.3-0.1-0.7-0.2-0.9 -0.2-0.4-0.2-0.7 0-1.1 0.1-0.3 0.3-0.7 0.1-0.9 -0.4-0.6-0.2-1.1 0.1-1.6 0.1-0.2 0.3-0.5 0.3-0.7 -0.1-0.9 0.3-1.6 0.6-2.4 0.1-0.3 0-0.6 0-0.9 0-0.3-0.5-0.5-0.8-0.3 -0.4 0.3-0.8 0.7-1.2 1 -1.4 1.2-2.8 2.4-4.3 3.6 -0.8 0.7-1.8 1.3-2.6 2 -2.5 1.9-5.2 3.6-8.1 4.9 -0.9 0.4-1.8 0.8-2.6 1.3 -1.1 0.7-2.3 1.2-3.6 1.3 -0.2 0-0.5 0.2-0.7 0.3 -1.1 0.7-2.3 1.2-3.6 1.3 -0.3 0-0.8 0.1-0.9 0.3 -0.4 0.7-1.2 0.7-1.9 0.9 -1.5 0.3-3 0.7-4.5 1 -0.1 0-0.3 0-0.4 0.1 -0.6 1-1.7 0.7-2.6 1.1 -0.4 0.2-0.9 0.3-1.3 0.3 -0.9 0-1.6 0.1-2.4 0.6 -0.3 0.2-0.9 0.3-1.3 0.2 -0.9-0.4-1.8-0.2-2.7-0.5 -0.5-0.2-1 0-1.5 0 -1.6 0-3.4 0.2-4.7-1.1 -0.1-0.1-0.3-0.3-0.5-0.3 -1 0-1.6-0.7-2.3-1.3 -0.3-0.2-0.7-0.4-1.1-0.3 -1.6 0.2-2.7-0.5-3.9-1.4 -0.2-0.1-0.3-0.2-0.5-0.4 -1.1-1.2-2.5-1.3-3.9-1 -0.3 0.1-0.6 0.2-0.9 0.2 -0.9 0.2-1.8 0.1-2.6-0.3 -0.9-0.5-1.8-0.9-2.9-0.3 -0.2 0.1-0.6-0.1-1-0.1 -0.1-0.4-0.2-0.7-0.4-1.2 -0.3-0.1-0.7-0.2-1-0.3 -0.6-0.2-1.1-0.3-1.6 0.3 -0.2 0.2-0.7 0.2-1.1 0.2 -0.5-0.1-1-0.2-1.5-0.4 -1.4-0.6-2.8-1.2-4.3-1.8 -0.3-0.1-0.6-0.3-0.9-0.3 -0.2 0-0.7 0.2-0.7 0.3 0.1 0.8-0.9 1.5-0.3 2.3 0.1 0.2 0 0.6 0 1 -0.3-0.2-0.5-0.3-0.6-0.4 -0.5-0.7-1-1-2-0.7 -0.7 0.2-1.6-0.1-2.6 0.4 0.4 0.5 0.8 1 1.2 1.5 0.4 0.4 0.8 0.8 1.2 1.2 -1.6 0.5-1.6 0.5-1.5 2.2 -1.3 0.1-2.5 0-3.8-0.4 -0.5-0.2-1-0.4-1.5-0.4 -1.1 0.2-1.8-0.2-2.2-1.2 -1.1 0.4-1.8 0-2.7-0.6 -1.2-0.8-2.3-1.6-3.5-2.5 -1.4-1.1-2.6-2.4-3.7-3.6 -1.4-1.5-2.7-3.1-4-4.7 -0.6-0.8-1-1.7-1.5-2.5 -0.2-0.3-0.4-0.5-0.8-1 -0.5 1.2 0 2.1 0 3 0 1 0.1 1.9 0.1 2.9 0 1 0 1.9-0.1 2.9 0 1 0 1.9-0.1 2.9 -0.1 1-0.2 2.1-0.4 3.1 -0.2 1-0.4 1.9-0.7 2.8 -0.2 0.9-0.5 1.9-0.8 2.8 -0.3 0.9-0.7 1.8-1 2.7 -0.4 0.9-0.8 1.8-1.2 2.7 -0.4 0.9-0.6 1.9-1.5 2.6 0-0.3-0.1-0.6 0-0.8 0.4-0.9 0.8-1.8 1.2-2.7 0.6-1.4 1.3-2.8 1.7-4.3 1.2-4.2 1.8-8.5 1.6-12.8 -0.1-1-0.3-1.9-0.3-2.9 0-1 0.1-2-0.1-3.1 -0.4-1.8-0.7-3.7-1.3-5.4 -0.1-0.2-0.2-0.3-0.4-0.5 -0.1 0.4-0.2 0.8-0.4 1.1 -0.5 0.7-0.3 1.2 0.2 1.7 0.8 0.9 0.7 1.9 0.5 2.9 -0.2 0.8-0.4 1.6-0.6 2.4 -0.2-0.4-0.4-0.7-0.8-1.4 -0.1 1.1 0.1 2.1-0.8 2.5 -0.1 0.1-0.1 0.4-0.1 0.6 -0.2 1.3-0.3 2.6-0.5 3.8 -0.2 1-0.8 1.9-0.9 3 0 0.2-0.3 0.4-0.5 0.6 -0.5 0.5-0.8 1-0.1 1.6 0.3 0.2 0.1 0.9-0.3 0.9 -0.8 0.1-1 0.6-1.2 1.1 -0.3 0.6-0.5 1.3-0.8 2 -0.2 0.5-0.4 1.1-1 1.4 -0.3 0.2-0.5 0.6-0.7 0.9 -1.3 2.4-2.5 4.9-3.9 7.3 -1.3 2.3-2.9 4.4-4.7 6.4 -0.8 0.8-1.5 1.6-2.3 2.4 -1 1.1-2.1 2.1-3.4 2.9 -0.1 0.1-0.2 0.1-0.3 0.2 -5.5 4.7-6.8 4.6-10.6 6 0.1 0.6-0.2 1-0.7 1.1 -0.9 0.2-1.9 0.4-2.8 0.6 -0.9 0.2-1.8 0.4-2.6 0.8 -1.3 0.6-2.5 0.9-3.9 0.8 -0.1 0-0.3-0.1-0.4 0 -1.7 1.1-3.6 0.7-5.4 0.8 -1.8 0.1-3.4-0.6-5.2-0.8 -0.6-0.1-1.2-0.1-1.7-0.2 -0.9-0.2-1.8-0.2-2.6-0.5 -6.5-2.5-12.6-5.8-17.8-10.4 -1.4-1.2-2.8-2.3-4-3.6 -1.2-1.3-2.3-2.8-3.3-4.3 -0.7-1-1.3-2.1-2-3.1 -0.9-1.3-1.8-2.7-2.7-4 -0.3-0.4-0.5-0.9-0.7-1.4 -0.2-0.4-0.4-0.8-0.6-1.2 -0.3-0.5-0.7-1.1-1-1.6 -1.4-2.7-2.8-5.4-3.9-8.2 -0.1-0.2-0.2-0.3-0.4-0.6 -0.2 0.3-0.5 0.5-0.5 0.7 -0.1 0.7-0.6 1.1-1.2 1.4 -0.9 0.4-1.7 0.9-2.6 1.3 -2.2 1-4.5 2-6.7 3 -0.7 0.3-1.5 0.5-2.3 0.3 -0.8-0.2-1.7-0.2-2.5-0.1 -1.8 0-3.6-0.2-5.1-1.4 -0.2-0.2-0.6-0.3-0.9-0.4 -2-0.4-3.3-1.6-4.1-3.4 -0.2-0.5-0.5-0.9-0.8-1.3 -0.1-0.2-0.4-0.3-0.4-0.4 0.1-1.4-1-1.6-2-2 -1.2-0.4-2.3-0.9-3.3-1.8 -0.9-0.8-1.4-1.7-1.6-2.8 -0.6-2.6-1.2-5.2-1.8-7.8 -0.1-0.5-0.3-1-0.4-1.3 -0.4-0.3-0.7-0.2-0.8 0 -1.6 1.3-3.4 2.1-5.2 3 -0.2 0.1-0.6 0.2-0.7 0.3 -0.7 0.9-1.8 1.2-2.7 1.8 -1.5 0.9-3.2 1.4-4.8 2.1 -0.3 0.1-0.8 0.3-0.7 0.8 0.8 0.5 1.5-0.3 2.4-0.1 -0.2 0.6-0.7 0.7-1.1 0.9 -1.2 0.6-1.2 0.6-1.9 1.9 -0.6 0.2-1.3 0.4-2 0.6 -0.7 0.2-1.5 0.5-2.2 0.8 -0.8 0.4-1.7 0.6-2.6 0.5 -1.5-0.2-2.9 0.2-4 1.4 -1 1.1-2.1 1.9-3.4 2.5 -1.1 0.5-1.3 0.5-2-0.7 -0.1-0.1-0.2-0.2-0.3-0.4 -0.6 0-1.3 0.1-2 0.1 -1.1 0-1.5-0.5-1.5-1.6 0-0.4 0-0.9 0-1.4 -0.6 0-1.1-0.1-1.6-0.1 -0.5 0-0.9 0.1-1.4 0.1 -0.7 0-1-0.5-0.6-1.2 0.1-0.2 0.2-0.3 0.3-0.5 -0.7-0.7-1.3-1.4-2-2.2 0.1-0.3 0.2-0.7 0.4-1 -0.1-0.1-0.1-0.2-0.2-0.3 -1.6-0.9-3.4-1.3-5-2 -0.5-0.2-0.9-0.4-1.4-0.7 -0.6-0.4-1.3-0.9-1.9-1.4 -0.2-0.2-0.4-0.3-0.6-0.5 -1-1.6-2.1-3-2.6-4.9 -0.4-1.6-1-3.2-1.4-4.8 0-0.1-0.1-0.3-0.1-0.4 -1.2-1.4-1.4-3.3-2.2-4.9 -0.4-0.8-0.7-1.8-0.7-2.8 0-0.2 0-0.4-0.1-0.6 -0.9-1.1-0.7-2.5-1-3.7 -0.4-1.2-0.5-2.4-0.8-3.6 -0.1-0.4-0.3-0.7-0.4-1.1 -0.2-0.6-0.4-1.2-0.5-1.9 -0.2-3.8-0.7-7.5-1.5-11.1 0.3-1.3-0.4-2.5-0.2-3.8 0.1-0.4 0-0.9-0.1-1.4 -0.5-3.9-0.5-7.9-0.7-11.8 -0.1-2.3-0.3-4.6-0.5-6.9 0-0.3-0.1-0.6-0.1-1 0-7.3-0.1-14.6 0-21.9 0-2.6 0.1-5.1 0-7.7 0-1.8 0.2-3.6 0.3-5.4 0.1-3 0.2-5.9 0.3-8.9 0.1-3.7 0.1-7.4 0.3-11.1 0.1-2 0-4 0.5-6 0.2-0.9 0.2-1.8 0.3-2.7 0.3-2.9 1.4-5.6 2.4-8.4 0.5-1.3 1.1-2.6 1.6-3.9 0.9-2 2.1-3.9 3.7-5.4 1.4-1.3 2.9-2.1 4.8-2.3 0.6-0.1 1.3-0.3 1.9-0.5 1.5-0.6 3-0.6 4.6-0.2 1.2 0.3 2.4 0.6 3.6 0.6 1.7 0 3.2 0.3 4.4 1.7 1.3 0.5 2.1 1.6 3.3 2.3 1.1 0.7 2.1 1.6 1.8 3.1 0 0.2 0 0.5 0.1 0.8 0.9 1.6 0.6 3.4 0.5 5.1 -0.1 1.6-0.5 3.2-0.3 4.8 0 0.1 0 0.3 0 0.4 -0.2 1.1-0.4 2.3-0.5 3.4 -0.1 1.2-0.1 2.3-0.1 3.5 0 4.7-0.7 9.4-0.4 14.2 0 0.1 0 0.3 0 0.4 -0.6 3.6-0.3 7.2-0.8 10.8 -0.1 0.6 0 1.3 0 1.9 0 5.5 0 11 0.1 16.5 0 2.6 0.1 5.2 0.3 7.8 0.1 0.8-0.4 1.6-0.1 2.4 0.3 0.8 0.1 1.7 0.2 2.5 0.1 0.8 0.1 1.7 0.2 2.5 0.1 0.8 0.1 1.7 0.1 2.5 0.1 0.8 0.2 1.7 0.2 2.5 0.1 1.5 0.2 3 0.2 4.5 0.1 4.3 0.5 8.7 1 13 0.1 1.3 0.2 2.6 0.2 3.9 0 2.3 0.3 4.5 0.6 6.8 0.4 3.3 0.7 6.7 1.1 10 0.2 1.8 0.6 3.6 0.8 5.4 0.1 0.5 0.1 1 0.2 1.5 0.1 1 0.3 1.9 1.1 2.7 0.4-0.3 0.9-0.5 1.2-0.9 3-2.9 5.6-6.1 7.8-9.7 1.3-2 2.7-4 4-5.9 1.1-1.6 1.7-3.3 1.6-5.3 0-0.5 0-0.9 0-1.4 -0.3-2-0.1-4 0.1-6 0.1-1.2 0.3-2.3 0.7-3.4 0.5-1.1 0.7-2.4 1-3.5 0.6-2.2 2.1-3.7 3.9-4.9 0.9-0.6 2-1 3-1.4 0.4-0.2 0.9-0.2 1.3-0.2 1.6 0 3.2 0 4.8-0.1 1.4-0.1 2.6 0.5 3.8 1.2 0.8 0.5 1.5 0.9 2.3 1.4 1.7 1 3.3 2 5 3 0.3 0.2 0.5 0.4 0.8 0.5 3.2 1.4 5.4 4 7.6 6.5 0.3 0.3 0.5 0.7 0.7 1.1 1 1.8 2.2 3.5 3.8 4.9 0.3 0.3 0.6 0.5 0.8 0.8 0.3 0.4 0.3 0.9 0 1.3 -0.2 0.3-0.4 0.6-0.7 1 -0.2 0.3-0.5 0.5-0.5 0.8 -0.2 1.6-1.1 2.7-1.9 3.9 -0.7 1.1-1 2.4-1.3 3.6 -0.8 3.3-1.8 6.5-2.4 9.8 -0.8 4-0.9 8.1-0.7 12.2 0.1 1.6 0.8 3 1.9 4.1 1.6 1.6 3.1 3.3 4.6 5 0.5 0.5 1.2 1 1.8 1.4 0.9 0.6 1.7 1.4 2.4 2.2 0.5 0.6 1.1 1.1 1.6 1.6 0.1 0.1 0.4 0.1 0.7 0.1 0-0.3 0.1-0.7 0-0.9 -0.5-1.7-1.1-3.5-1.5-5.2 -0.4-1.6-0.7-3.1-1-4.7 -0.4-2.4-0.6-4.9-1-7.3 -0.2-1-0.5-1.9-1.7-2.4 -0.6-0.2-0.9-1-0.9-1.6 0-0.2 0.4-0.4 0.7-0.7 -0.8-1.1-1.6-2.2-2.4-3.4 0.2-0.4 0.5-0.9 0.7-1.5 0.6 0.3 1.2 0.7 1.8 0.4 0.3 0.5 0.6 1 0.9 1.4 0.8-0.1 0.3-0.8 0.8-1.1 0 0 0.2-0.1 0.3 0 2.7 1.8 5.3 3.7 7.9 5.6 1.4 1 2.8 2.1 4 3.4 1 1.1 1.8 2.3 2.8 3.5 0.7 0.9 1.4 1.7 2.2 2.5 0.2 0.2 0.5 0.3 0.8 0.5 0.2 0.2 0.5 0.3 0.5 0.6 0.3 1.5 1.3 2.5 2.2 3.6 1.6 2 3.2 4 5.2 5.8 1 0.9 1.8 1.9 2.7 2.8 0.6 0.6 1.1 1.3 1.8 1.8 1.5 1.1 2.5 2.8 4.1 3.8 0.3 0.2 0.7 0.6 1 0.6 1.2-0.1 1.9 0.7 2.7 1.3 1.2 0.9 2.6 1.4 4.1 1.7 0.8 0.2 1.7 0.1 2.5 0 1.3-0.2 2.7-0.4 4-0.7 1.3-0.3 2.6-0.4 3.6-1.3 0.4-0.3 0.6-0.7-0.1-1.2 1.3-0.1 2.4-0.6 3-1.5 0.6-0.9 1.6-1.3 1.9-2.4 0.1-0.6 0.8-1 1.2-1.5 0.5-0.5 1-1 1.1-1.8 0-0.3 0.2-0.6 0.4-0.9 0.7-1.4 1.4-2.9 2.2-4.3 0.1-0.2 0.2-0.3 0.2-0.5 0.4-2.7 1.1-5.5 0.7-8.3 -0.1-0.6-0.1-1.2-0.2-1.7 -0.2-1-0.4-2-0.6-3 -0.1-0.4-0.1-0.9-0.3-1.3 -1.2-2.3-2-4.9-3.5-7.1 -0.5-0.7-0.7-1.6-1.2-2.6 -1-0.4-1.7-1.2-1.8-2.5 -0.1-0.5-0.4-1-0.8-1.3 -0.7-0.6-1.1-1.2-1.5-2 -1.1-1.9-2.6-3.5-4-5.2 -1-1.2-2-2.4-3-3.7 -0.8-0.1-1.7-0.4-2.1-1.4 -0.8-0.5-1.6-1-2.5-1.3 -1-0.4-2.1-0.6-3.1-1 -1.8-0.6-3.5-1.2-5.3-1.9 -0.3-0.1-0.6-0.4-0.9-0.7 1.6 0.4 3.3 0.7 4.9 1.2 0.7 0.2 1.4 0.1 2.1-0.2 0 0 0.1-0.1 0.2-0.2 -0.6-0.6-1.3-1-2.1-1.3 -1.4-0.5-2.7-1.2-4.1-1.8 -0.8-0.4-1.7-0.6-2.6-0.5 -0.2 0-0.4 0.1-0.6 0 -1.3-0.8-2.8-0.6-4.1-0.9 -0.8-0.2-1.6-0.5-2.4-0.7 -0.2-0.1-0.4-0.2-0.6-0.1 -1.2 0.2-2.1-0.4-3.1-0.8 -1.9-0.8-4-1-5.9-1.7 -0.7-0.3-1.5-0.5-2.2-0.8 -0.3-0.1-0.7-0.4-0.6-0.9 0.1-0.3 0.6-0.4 1.2 0 0.2 0.1 0.3 0.2 0.5 0.3 0.3 0.2 0.6 0.6 0.9 0.7 0.5 0.1 1.1 0 1.9 0 -0.3-0.4-0.4-0.6-0.6-0.9 0 0-0.1-0.1-0.2-0.1 -1.3-0.9-1.3-0.9-1.4-2.5 -0.2-0.1-0.4-0.3-0.6-0.4 -1-0.4-1.6-1-1.5-2.2 0-0.3-0.4-0.7-0.5-1.1 -0.1-0.4-0.2-0.7-0.2-1.1 0-0.7-0.5-1.3-0.2-2.1 0.1-0.2 0-0.5-0.1-0.7 -0.8-1.8-1.6-3.6-2.7-5.3 -0.2-0.2-0.2-0.6-0.2-0.9 0-0.9 0.1-1.8-0.5-2.6 -0.3-0.5-0.4-1.1-0.2-1.7 0.1-0.2 0.1-0.5 0.1-0.8 -0.2-2.1 0.9-3.8 2.1-5.5 1.5-2.1 3.6-3.5 5.5-5.1 2-1.6 4-3.1 6.3-4.2 1.1-0.5 2-1.2 3-1.8 6.5-3.5 13.3-6.1 20.4-7.9 2.3-0.6 4.7-1 7.1-1.1 1.1 0 2.2-0.2 3.3-0.3 6.3-0.3 12.4 0.8 18.1 3.4 1.4 0.6 2.7 1.3 3.9 2.2 2.1 1.4 3.6 3.3 4.7 5.5 0.4 0.7 0.9 1.4 1.3 2.1v3.3c-1 0.8-2.1 1.8-3.2 2.8 0.1 0.2 0.1 0.4 0.2 0.5 0.4 1.1 0.4 1.2-0.4 1.8 -1.3 1-2.7 2-4.1 2.9 -0.6 0.4-1.2 0.8-1.9 0.9 -1.5 0.3-3 0.9-4.5 1.1 -1.7 0.2-3.3 0.8-4.9 1.1 -2.8 0.5-5.6 0.8-8.4 1.2 -1 0.1-2 0.3-3.1 0.4 -2.3 0.3-4.6 0.5-6.9 0.8 -2.6 0.3-5.3 0.6-7.9 1 -3.5 0.5-7 1.3-10.4 2.3 -0.4 0.1-0.8 0.4-1.3 0.6 0.3 0.3 0.5 0.6 0.7 0.8 0.8 0.5 1.7 1 2.6 1.3 2.2 0.9 4.4 1.8 6.7 2.6 4.4 1.6 8.8 3.1 13.2 4.6 4 1.4 7.8 3 11.6 4.9 2.6 1.3 5.2 2.6 7.8 4 1.2 0.7 2.3 1.7 3.5 2.4 2.6 1.6 5.3 3 7.7 4.9 1.4 1.1 2.7 2.2 3.9 3.4 1 1.1 2.1 2.1 3.2 3 1.2 1.1 2.5 2.3 3.4 3.7 0.4 0.6 0.7 1.4 1.5 1.7 0.1 0 0.2 0.2 0.3 0.3 0.3 1 1.2 1.5 1.7 2.3 0.6 0.8 1.3 1.5 1.5 2.5 0.1 0.2 0.3 0.4 0.5 0.6 0.4-0.6 0.2-1.1 0.1-1.6 -0.8-3.4-1.2-6.9-1.4-10.4 -0.2-2.8-0.5-5.5-0.7-8.3 -0.2-4.1-0.3-8.2-0.5-12.2 0-0.9 0-1.8 0-2.7 0-0.7-0.3-1-1.1-1.1 -0.6-0.1-1.2-0.1-1.7-0.1 -3.7 0-7.4 0.1-11.1 0.1 -0.3 0-0.7-0.1-0.9-0.3 -0.5-0.8-1.3-0.8-2.1-0.8 -1.1 0-2.2 0-3.3 0 -1.1 0-2.2-0.1-3.2-0.6 0.7-0.8 1.8-0.4 2.6-0.8 -0.4-0.8-1.2-0.2-1.6-0.6 0-0.1-0.2-0.2-0.1-0.3 0.1-0.4 0.3-0.9-0.2-1.2 -0.6-0.4-0.7-1.1-0.9-1.6 0.5-0.4 0.9-0.8 1.5-1.3 -1.1-0.4-2.1-0.8-3-1.1 -0.1-1.7 0-1.8 1.3-2.5 2.5-1.4 5.2-2.3 8-2.8 0.6-0.1 1.3-0.3 1.9-0.5 3-0.9 6.1-1.3 9.1-1.8 1.3-0.2 2.7-0.6 4-0.9 1.2-0.3 1.8-1.1 1.9-2.4 0.3-3.2 0.7-6.3 1.1-9.4 0.5-3.3 1.1-6.6 1.7-10 0.3-1.8 0.8-3.7 1.2-5.5 1.2-4.8 2.7-9.5 4.5-14 1.4-3.6 2.9-7.1 4.8-10.4 0.8-1.4 1.3-2.9 1.9-4.5 0.3-0.7 0.7-1.2 1.4-1.5 0.5-0.2 1-0.4 1.4-0.7 0.4-0.2 0.9-0.5 1.3-0.8 2.1-2.1 4.2-4.2 5.8-6.8 1.2-2 3-2.9 5.3-3 0.6 0 1.3-0.1 1.9-0.2 0.2 0 0.4-0.1 0.6-0.1 1.4 0.1 2 1.3 3 2 0.6 0.4 0.6 1.1 0.6 1.8 0 1 0 1.9 0 2.9 0 0.9 0.2 1.6 0.9 2.3 0.6 0.6 0.9 1.3 1 2.1 0.3 3.2 0.7 6.4 0.9 9.7 0.4 5.7 0.4 11.4 0.4 17.1 0 1.7 0 3.4 0 5.1 -0.1 4-0.2 8-0.3 12 0 2.5 0 4.9-0.2 7.4 -0.1 1.9 0.2 3.7 0 5.6 1 0.4 2 0.3 2.9 0.2 1.7-0.1 3.5-0.3 5.2-0.5 3.2-0.2 6.4-0.5 9.7-0.4 1.9 0.1 3.9 0 5.8-0.1 0.7 0 1.5-0.2 1.8 0.8 0 0.1 0.3 0.2 0.5 0.2 0.9 0 1.4 0.5 1.9 1.3 -0.1 0.7-0.9 1.4-0.2 2.3 0.1 0.1-0.1 0.7-0.3 0.8 -0.6 0.4-1.2 0.8-1.8 1 -1.2 0.4-2.3 0.7-3.5 1 -0.3 0.1-0.6 0-0.9 0.1 -0.2 0-0.6 0.1-0.7 0.2 -0.9 1.2-2.3 1.2-3.5 1 -1.1-0.2-2.2-0.3-3.2 0.1 -0.1 0-0.1 0-0.2 0 -1.6 0.1-3.2 0.3-4.7 0.9 -0.3 0.1-0.6 0-1 0 -2.3 0.1-4.5 0.2-6.8 0.3 -0.3 0-0.6 0.1-0.9 0.2 -0.7 2.1-0.5 4.2-0.5 6.3 -0.1 4.6-0.2 9.2-0.3 13.8 0 1.6 0 3.2 0 4.8 0 3.1 0 6.2 0.2 9.3 0.3 4.4 0.4 8.8 1.1 13.1 0.7 4.1 1.7 8.1 3.3 12 0.6 1.6 1.5 3 2.7 4.2 1.5 1.6 3.4 2.4 5.6 1.7 0.8-0.2 1.6-0.5 2.4-0.7 0.6-0.2 0.8-0.6 0.9-1.2 0-0.2 0-0.4 0-0.6 -0.1-2.2-0.1-4.4-0.2-6.6 0-0.5 0-1 0.1-1.5 0.1-1.5 0.2-3 0.2-4.5 0-2.4 0.4-4.8 1.1-7.1 0.8-2.8 1.7-5.6 2.6-8.3 1.7-5.3 4.1-10.4 6.3-15.5 1.9-4.5 4.1-8.9 6.9-13 1.2-1.7 2.3-3.6 3.6-5.3 0.9-1.2 1.9-2.3 2.8-3.4 1-1.1 1.9-2.3 2.9-3.4 0.6-0.6 1.3-1 1.9-1.6 0.7-0.6 1.4-1.1 2-1.8 1.4-1.7 3.1-2.9 5.1-3.8 0.8-0.3 1.3-0.8 1.8-1.4 0.9-1.1 1.9-2.1 2.9-3.1 0.4-0.4 1-0.6 1.6-1 0.1 0.4 0.1 0.6 0.2 0.9 0.7 0.1 1.4 0.2 1.4 1.1 0.6 0.2 0.9 0.6 1.2 1.1 0.5-0.1 1-0.2 1.5-0.3 0.1 0.1 0.3 0.2 0.3 0.3 0.1 0.5 0.1 1 0.2 1.6 0.4 0.2 0.9 0.4 1.3 0.7 0.4 0.3 0.6 0.8 0.9 1.3 0.8-0.3 1.4-0.8 2.2-0.3 0.3 0.1 0.8 0 1.1-0.2 0.8-0.6 1.6-0.5 2.4-0.1 0.2 0.1 0.5 0.2 0.7 0.3 0.4 1.3 0.4 1.3 1.8 2.2 -0.2 1.6 0.4 3.1 0.8 4.7 0.5 2.4 0.6 4.9 0.5 7.3 -0.1 5-1.1 9.9-2.6 14.7 -0.5 1.7-1 3.3-1.6 5 -0.4 1.2-1 2.2-1.5 3.4 -0.5 1.1-1.1 2.2-1.2 3.5 0 0.2-0.1 0.5-0.2 0.7 -1.2 2.4-2.2 4.9-3.5 7.3 -2 3.6-4.1 7-6.3 10.5 -1.1 1.7-2.5 3.3-3.7 5 -0.5 0.7-1.1 1.4-1.3 2.3 -0.1 0.4-0.3 0.7-0.6 1 -0.4 0.4-0.9 0.7-1.2 1.2 -0.4 0.4-0.6 1-0.9 1.4 -1.2 1.3-2.4 2.5-3.7 3.7 -1.2 1.1-2.4 2.2-3.6 3.3 -0.4 0.4-0.9 0.8-0.9 1.4 0.8 0.9 2 0.9 3 1 1.5 0.1 3.1 0.2 4.6 0.1 1.2-0.1 2.4-0.5 3.5-1 1.9-0.9 3.7-1.8 5.5-2.9 2.9-1.7 5.5-3.8 8-6.1 2.8-2.5 5.5-5.1 8-7.9 3.3-3.6 6.5-7.2 9.5-11.1 3.4-4.4 6.2-9.1 8.9-13.9 2-3.6 3.8-7.2 5.5-10.9 1.9-4 3.5-8.1 5.1-12.2 0.3-0.6 0.4-1.4 0.5-2.1 0.1-1.1 0.6-2 1.3-2.7 0.8-0.8 1.4-1.9 2.6-2.2 0.3-0.1 0.5-0.6 0.8-0.8 0.1-0.1 0.5 0.1 0.6 0.2 0.3 0.6 0.3 1-0.3 1.3 -0.6 0.3-0.7 0.7-0.5 1.2 0.5 1.2 0.6 2.3 0.7 3.6 0.1 1.2 0.4 2.4 0.6 3.6 0 0.2 0.1 0.6 0.2 0.7 0.7 0.4 0.5 1.1 0.5 1.7 0 0.3 0 0.5-0.1 0.8 -0.1 0.5-0.1 0.9 0.3 1.2 0.6 0.5 0.6 1.2 0.7 1.9 0 1 0.1 2.1 0.1 3.1 0 0.6-0.3 1.1-0.2 1.7 0.1 0.4 0 0.7 0 1.1 -0.1 1.4-0.9 2.5-1.2 3.9 -0.3 1.3-0.7 2.6-0.9 4 -0.3 1.8-0.6 3.6-0.9 5.4 -0.4 2.1-0.8 4.2-1.2 6.3 -0.3 1.4-0.6 2.8-0.6 4.5 0.4-0.6 0.7-0.9 0.9-1.3 0.1 0.1 0.2 0.2 0.2 0.2 -0.4 2.7-0.9 5.4-1.1 8.1 -0.2 1.7 0 3.4 0.1 5 0 0.8 0.1 1.5 0 2.3 -0.2 0.8-0.1 1.6 0.5 2.4 0.9-0.3 1.6-1 2.2-1.6 0.9-1.1 1.9-2.2 2.7-3.3 2-2.6 3.9-5.3 5.8-8 0.6-0.8 1.3-1.6 2-2.4 0.3-0.3 0.5-0.7 0.8-1.1 1.6-2.6 3.3-5.3 4.9-7.9 0.3-0.5 0.5-1 0.8-1.5 0.6-0.9 1-1.9 2-2.6 0.6-0.4 1.1-1.1 1.3-1.9 0.1-0.5 0.6-1 1.4-1 -0.4 1.6-1.6 2.7-2.1 4.3 0.3 0.3 0.7 0.7 1.2 1.2 0.5-0.8 0.8-1.6 1.6-2 1.1 0.7 1.1 0.7 0.6 1.6 -0.1 0.3-0.4 0.5-0.2 1 0.4-0.3 0.7-0.5 1.2-0.8 0.4 0.1 1 0.3 1.5 0.5 0 0.2 0.1 0.4 0 0.6 -0.6 1.1-1.2 2.2-1.7 3.2 -0.1 0.2-0.1 0.5-0.2 1 1.2-0.8 1.4-2.1 2.4-2.7 0.4 0.1 0.5 0.3 0.3 0.7 -0.1 0.2-0.1 0.5-0.1 0.7 0 0.2 0.4 0.4 0.6 0.3 0.1-0.1 0.3-0.1 0.3-0.2 0.4-1.5 1.9-2.2 2.5-3.6 0.3-0.6 0.8-1.2 1.7-0.9L437.2 439.5zM333.2 432.7l0 0c-0.1 0.8-0.2 1.5-0.4 2.3 -0.1 0.4-0.3 0.7-0.3 1.1 -0.7 3.5-1.4 7-1.7 10.5 -0.4 3.8-0.5 7.6-0.2 11.4 0 0.3 0.1 0.6 0.6 0.7 0.2-0.2 0.4-0.4 0.5-0.7 2.2-3.6 4.3-7.2 6.3-10.9 0.7-1.4 1.4-2.9 2.1-4.4 0.7-1.4 1.4-2.8 1.7-4.3 0.2-0.8 0.5-1.6 0.9-2.4 1.8-3.7 3.1-7.5 4.4-11.4 1.2-3.9 2.5-7.7 3.3-11.8 0.3-1.7 0.7-3.4 1-5.1 0-0.3 0.1-0.6 0.1-1 0-0.8-0.6-1.3-1.4-1.1 -0.4 0.1-0.9 0.2-1.2 0.5 -1.1 0.8-2.3 1.5-3.2 2.5 -2.1 2.2-3.9 4.6-5.3 7.4 0 0.1-0.2 0.1-0.3 0.2 -0.1-0.4-0.1-0.7-0.2-1.1 -0.7-0.2-1.1 0.1-1.4 0.6 -0.9 1.8-2.4 3.2-3.1 5.1 -0.5 1.3-1.3 2.5-1.6 3.9 -0.2 1.4-1.4 2.5-1.3 4 0 0.2-0.2 0.4-0.4 0.7 -0.2 0.3-0.4 0.6-0.5 1 -0.3 1.1-0.5 2.2-0.8 3.3 0.5 0.6 1 0.5 1.4 0.2C332.4 433.5 332.8 433.1 333.2 432.7M386.4 462.7c-0.8 1-1.8 1.7-2.4 2.9 -0.1 0.3-0.3 0.6-0.5 0.8 -1 1.2-1.7 2.5-2.2 4 -0.2 0.6-0.4 1.2-0.5 1.8 0 0.7-0.5 1.3-0.7 2 -0.3 0.7-0.5 1.3-0.1 2 0.1 0.2 0 0.6-0.1 0.9 -0.1 0.4-0.3 0.8-0.4 1.3 0 0.2 0.1 0.4 0.2 0.6 0.4-0.1 0.7-0.2 1.1-0.3 -0.1-0.6-0.3-1.2-0.2-1.5 0.8-1.9 1.1-4.1 2.4-5.9 0.4-0.6 0.7-1.4 1-2.1 0.4-0.9 0.7-1.8 1.1-2.7C385.6 465.3 386.3 464.1 386.4 462.7M176.2 164c0.1 0.5 0.2 1 0.5 1.5 1.5 2.3 2.3 5 3.4 7.6 1.4 3.1 2.6 6.4 3.6 9.6 0.7 2.2 1 4.5 1.5 6.8 0.5 2.7 1 5.5 1.5 8.2 0.6 3.8 1.5 7.6 1.9 11.5 0.3 3.3 1 6.7 1.4 10 0.3 2.6 0.6 5.3 0.9 7.9 0.4 3.7 0.7 7.5 1 11.2 0.3 4.1 0.5 8.3 0.8 12.4 0.2 2.6 0.4 5.3 0.5 7.9 0.1 1.6 0.1 3.1 0.2 4.7 0 0.4 0 0.8 0.1 1.2 0.1 0.7 0.5 1.1 1.2 0.9 1-0.2 2-0.4 3-0.7 3.8-1.1 7.6-2.2 11.4-3.3 0.2-0.1 0.5-0.1 0.8-0.2 0.6-0.2 0.9-0.6 1-1.3 0.1-1.2 0.3-2.4 0.3-3.7 0.2-2.6 0.3-5.2 0.5-7.8 0.2-2.4 0.4-4.8 0.7-7.1 0.4-3.5 0.7-7 1.1-10.4 0.3-2.5 0.8-5 1.2-7.5 0.5-2.7 1.1-5.5 1.5-8.2 0.6-3.4 1.2-6.9 1.7-10.3 0.4-2.6 0.7-5.1 1.1-7.7 0.4-2.4 0.9-4.8 1.5-7.2 0.4-1.8 0.9-3.6 1.4-5.4 0.7-2.6 1.8-5 2.8-7.4 1.2-2.8 2.8-5.4 4.5-7.9 1.9-2.8 4-5.6 6.5-7.9 1-1 2-2 3-2.9 1.1-0.9 2.1-1.9 3.3-2.7 3.3-2.2 6.8-4.1 10.6-5.2 1.2-0.3 2.5-0.6 3.8-0.7 1.4-0.1 2.5 0.6 3.3 1.7 1.2 1.4 2.1 3 2.3 4.6 1.2 1.2 2.4 2.2 3.5 3.3 0.3 0.3 0.6 0.5 0.7 0.9 0.8 1.7 1.8 3.3 2.1 5.2 0.5 2.8 0.9 5.5 0.8 8.3 -0.1 2.5-0.1 5.1-0.3 7.6 -0.2 2.3-0.4 4.6-0.8 6.9 -0.6 2.9-0.8 5.8-1.3 8.6 -0.8 4.4-1.7 8.8-2.5 13.2 -0.6 2.9-1.1 5.8-1.7 8.7 -0.3 1.4-0.7 2.8-1 4.1 -0.3 1.6-0.7 3.3-0.9 5 -0.3 2-1 3.9-1 5.9 0 1.1-0.5 2.1-0.7 3.2 -0.6 2.7-0.8 5.5-1.2 8.2 -0.3 2.4-0.7 4.9-1 7.3 -0.1 0.8 0 1.5 0 2.3 0.7 0.4 1.3 0 1.9 0 0.6 0 1.1-0.2 1.7-0.1 -0.9 0.3-1.8 0.6-2.7 1 -0.3 0.1-0.7 0.2-0.9 0.4 -0.2 0.2-0.4 0.5-0.4 0.8 0 0.4 0.4 0.6 0.7 0.5 0.9-0.2 1.8-0.2 2.7-0.1 0.7 0.1 1.5-0.3 1.8 0.7 0.5 0 1 0.1 1.5 0 1.1-0.3 2.1-0.6 3.2-0.9 0.2-0.1 0.5 0 0.8-0.1 -0.4 1-1 1.6-1.9 2 -0.4 0.2-0.9 0.3-0.9 1 0.3-0.1 0.6-0.1 0.9-0.2 1-0.4 2.1-0.8 3-1.3 0.5-0.3 0.9-0.4 1.5-0.4 0.8 0 1.5 0.1 2.1-0.6 0.1-0.1 0.5 0.1 1 0.3 -0.8 0.7-1.5 1.2-1.9 1.9 -0.4 0.6-0.4 1.5-0.8 2.2 -0.3 0.5-0.9 0.9-1.4 1.3 -0.3 0.3-0.6 0.5-0.9 0.9 2.3-0.3 3.9-2 5.9-3 0.3 0.2 0.6 0.4 0.9 0.6 0.9-0.3 1.8-0.6 2.7-0.8 1.2-0.3 2 0.5 1.7 1.7 -0.2 0.5-0.5 1.1-0.8 1.5 -0.5 0.7-1.2 1.4-1.8 2.1 -0.8 1-1.5 2.1-2.2 3.2 -0.7 1.1-1.4 2.2-2.1 3.2 -0.9 1.3-1.7 2.6-2.7 3.8 -1.2 1.5-2.7 2.7-4.3 3.8 -2.5 1.6-5.1 2.7-7.9 3.7 -0.7 0.2-1.3 0.6-1.9 0.9 -0.3 1.1-0.3 2.1-0.2 3.2 0.3 4.6 0.7 9.2 1.8 13.5 0.6 0.5 1.2 0.5 1.7 0.3 2-0.7 4-1.3 5.8-2.6 3.6-2.5 7-5.1 10-8.2 1.2-1.3 2.4-2.5 3.6-3.8 1.1-1.1 1.6-2.4 1.5-4 -0.2-1.9-0.4-3.8-0.2-5.6 0.2-2.3-0.1-4.5-0.1-6.8 0-0.8 0.2-1.5 0.6-2.3 0.4 0.3 0.8 0.5 1.2 0.8 0.7-1.8 0.6-3.6 0.7-5.4 0.1-0.8 0.2-1.7-0.1-2.5 -0.6-2.3-0.4-4.5-0.1-6.7 0.6-3.6 1.4-7.1 2.5-10.6 1.9-5.9 3.8-11.8 6.8-17.3 1.3-2.3 2.3-4.8 3.8-7 2.3-3.4 4.8-6.8 7.9-9.5 2-1.8 4.2-3.4 6.4-5.1 1.6-1.2 3.2-2.5 4.8-3.6 0.8-0.6 1.8-1 2.9-1.1 1.4 0 2.7-0.1 4-0.7 0.5-0.2 1.3-0.1 1.9-0.1 0.7 0 1.5 0.1 2.1-0.1 1.2-0.5 2.2-0.2 3.1 0.3 1.1 0.7 2.2 0.9 3.5 0.6 0.4-0.1 0.9 0 1.3 0.1 2.3 0.6 4.5 1.1 6.8 1.8 0.5 0.2 1.1 0.5 1.5 0.8 0.8 0.6 1.7 1 2.7 1.1 1.6 0.1 2.7 1.2 3.5 2.5 0.2 0.3 0.3 0.7 0.3 1.1 0.1 0.9 0.3 1.6 0.8 2.4 1 1.6 1.4 3.3 1.6 5.1 0.3 2.5-0.1 4.9-0.4 7.3 -0.2 1.9-1 3.6-1.1 5.5 -0.1 0.8-0.4 1.6 0 2.5 0.2 0.3 0 0.8-0.5 0.9 -0.6 0.1-0.7 0.6-0.8 1 -0.4 1.2-0.8 2.3-1.2 3.5 0.2 0.2 0.3 0.4 0.6 0.6 -0.1 0.9-0.5 1.6-1 2.4 -0.4 0.7-0.8 1.5-0.8 2.4 0 0.6-0.3 1-0.8 1.3 -0.7 0.5-1 1.2-0.8 2 0.2 0.6 0 1.1-0.3 1.6 -0.4 0.6-0.7 1.3-1 1.9 -0.1 0.1-0.1 0.3-0.1 0.4 -1.2 1.8-1.8 4-2.7 5.9 -0.8 1.8-1.8 3.6-3 5.2 -0.8 1-1.5 1.9-1.5 3.3 0 0.2-0.2 0.5-0.3 0.7 -1.3 2.2-2.5 4.5-4 6.7 -1.6 2.4-3.4 4.7-5.2 7 -1.4 1.9-2.8 3.7-4.2 5.5 -1.6 1.9-3.3 3.8-5.3 5.4 -0.7 0.6-1.3 1.4-1.9 2.2 -0.4 0.6 0 1.7 0.8 2.1 0.5 0.2 1 0.4 1.5 0.4 0.8 0 1.5-0.1 2.3-0.2 1.1-0.1 2.2-0.3 3.3-0.5 0.6-0.1 1.1-0.2 1.7-0.4 1.5-0.5 2.9-1.1 4.4-1.7 0.6-0.2 1.2-0.5 1.7-0.9 1.4-0.9 2.9-1.8 4.3-2.7 1-0.6 1.9-1.4 2.9-1.9 2.6-1.5 5.2-2.9 7.8-4.3 1.9-1.1 3.9-2.1 5.8-3.2 1.8-1.1 3.7-1.8 5.7-2.4 2.2-0.7 4.4-1.5 6.4-2.7 0.2-0.1 0.3-0.2 0.5-0.3 1.4-0.4 2.5-1.3 3.4-2.4 0.2-0.3 0.6-0.4 0.9-0.7 0.5 0.6 0.6 1.2 0.5 1.9 -0.1 0.9-0.3 1.8-0.4 2.7 0 0.3-0.1 0.6 0 0.8 0.6 1 0.1 1.7-0.6 2.3 -0.6 0.5-0.9 1.1-1.2 1.7 -0.9 1.8-2 3.5-3 5.2 -2.5 4.1-5.2 8-8.4 11.6 -1.4 1.5-2.6 3.2-4.1 4.7 -2.6 2.5-5.4 4.8-8.5 6.8 -1.2 0.8-2.4 1.6-3.6 2.2 -3.1 1.6-6 3.5-9.4 4.5 -0.6 0.2-1.2 0.5-1.8 0.7 -3.6 1.4-7.3 2.5-11.3 2.5 -1.9 0-3.7 0.3-5.6 0.4 -0.9 0.1-1.8 0.1-2.7 0.1 -1 0-1.9-0.2-2.9 0.1 -0.5 0.1-1.2 0-1.7-0.1 -3.1-0.6-6.1-1.7-8.8-3.5 -1.8-1.2-3.6-2.3-5.5-3.5 -0.4 0.2-0.8 0.3-1.1 0.6 -1.8 1.2-3.4 2.5-4.8 4.2 -1.3 1.7-2.8 3.2-4.6 4.4 -1.6 1-3 2.2-4.6 3.3 -0.6 0.4-1.2 0.7-1.8 1.1 -0.3 0.2-0.6 0.3-0.8 0.5 -1.7 1.5-3.6 2.1-5.8 2.4 -2.1 0.3-4.2 0.7-6.3 1.1 -1.6 0.3-3.1 0.2-4.5-0.7 -1.1-0.7-2.3-1.5-3.4-2.3 -0.7-0.6-1.4-0.7-2.3-0.6 -1.6 0.2-3.2 0.3-4.8 0.2 -5.5-0.1-10.6-1.4-15.4-4.2 -2.7-1.6-4.8-3.7-6.8-6 -3.2-3.9-5.2-8.4-6.6-13.3 -0.5-1.7-1-3.3-1.8-4.9 -0.4-0.7-0.6-0.8-1.4-0.6 -1.9 0.5-3.9 1-5.8 1.7 -3.4 1.1-6.9 2.3-10.3 3.5 -0.4 0.1-0.9 0.3-1.3 0.5 -0.7 0.4-1.1 0.9-1.2 1.8 -0.2 2.3-0.5 4.6-0.7 6.9 -0.3 2.6-0.5 5.3-1.1 7.9 -0.5 2.5-0.7 5-1.2 7.5 -0.9 4.6-1.7 9.3-3.2 13.8 -1.6 4.9-3.7 9.6-6.9 13.6 -3.4 4.2-7.4 7.6-12.6 9.5 -3.8 1.4-7.6 1.8-11.6 1.1 -2.6-0.5-5-1.3-7.3-2.5 -0.7-0.4-1.4-0.7-1.9-1.3 -0.3-0.3-0.7-0.5-1.1-0.7 -0.9-0.4-1.7-0.9-2.3-1.7 -0.4-0.6-1.1-1-1.8-1.4 -1.4-0.8-2.5-1.8-3.2-3.3 -0.4-0.7-0.4-0.7-1.7-0.5 -0.1-0.3-0.3-0.7-0.5-1 -0.1-0.2-0.2-0.5-0.4-0.6 -0.4-0.2-0.8-0.4-1.1-0.8 -0.6-0.9-1.4-1.7-2-2.5 -0.6-0.8-1-1.8-2.1-2.3 -0.2-0.1-0.3-0.3-0.4-0.4 -0.1-0.9-0.9-1.4-1.4-2.1 -0.5-0.8-1.1-1.5-1.8-2 -0.3-0.3-0.6-0.7-0.7-1.1 -0.2-0.9-0.8-1.6-1.4-2.2 -0.5-0.5-1.1-1.1-1.4-1.8 -0.3-0.6-0.7-1.1-1.2-1.5 -0.7-0.7-1.2-1.4-1.7-2.3 -0.1-0.3-0.4-0.5-0.6-0.8 -0.7-0.9-1.5-1.8-2.2-2.7 -0.3-0.4-0.7-0.9-0.7-1.3 -0.1-1.4-1.4-2.1-1.6-3.4 -1.1 0.8-1.8 0.1-2.7-0.1 -0.2-0.5-0.5-1-0.7-1.5 0.2-0.6 0.7-1.1 0.6-1.8 -0.2-0.8 0.5-1.3 0.7-1.9 0.2-0.6 0.7-1 1.2-1.6 -0.1-0.3-0.1-0.8-0.2-1.3 -0.1-0.4-0.5-0.5-0.9-0.4 -0.9 0.3-1 0.3-1.3-0.5 -0.1-0.4-0.3-0.7-0.4-1.1 -0.1-0.9-0.2-1.5-1.4-1.4 -0.4 0-0.8-0.5-1.2-0.9 -0.6-0.6-1.1-1.3-2.1-1.2 -0.2 0-0.5-0.3-0.8-0.5 -0.4-0.4-0.8-0.8-1.2-1.3 0.2-0.1 0.4-0.3 0.6-0.4 1.1-0.8 1.2-1 0.5-2.2 -0.3-0.5-0.6-0.9-0.4-1.5 0.2-0.8-0.1-1.4-0.5-2.1 0.5-1.2 1-2.6 1.7-3.8 0.6-0.9 1.5-1.6 2.4-2.2 1.3-0.7 2.7-1.2 4.2-1.5 0.6-0.1 1.3-0.2 1.9-0.5 0.4-0.1 0.9-0.4 1.1-0.7 0.9-1.4 2.3-2.1 3.7-2.6 2.2-0.9 4.5-1.7 6.8-2.4 4.6-1.4 9.2-2.7 13.8-4.1 2.5-0.8 5.1-1.4 7.7-2.1 1.5-0.4 3-0.9 4.4-1.4 0.9-0.3 1.7-0.6 2.6-0.9 2.5-0.8 5-1.6 7.6-2.4 0.1 0 0.2-0.1 0.4-0.1 0.8-0.2 1.1-0.7 1.2-1.6 0-1.4 0.2-2.8 0.2-4.3 0.2-5 0.1-10.1 0.1-15.1 0-1.4-0.2-2.8-0.3-4.3 -0.1-2.3-0.1-4.7-0.3-7 -0.1-2-0.4-4-0.6-6 -0.4-2.8-0.7-5.6-1.2-8.5 -0.2-1.6-0.5-3.2-0.8-4.8 -0.1-0.5-0.2-1-0.3-1.5 -0.7-3.8-1.3-7.7-2-11.5 -0.2-1-0.3-2-0.5-3.1 -0.6-4-1.5-7.9-1.9-11.9 -0.2-3-0.5-5.9 0-8.9 0.1-0.8 0.1-1.7 0.2-2.5 0.1-1 0.3-2 0.7-3 0.4-0.8 0.5-1.7 0.4-2.7 -0.2-1.2 0.1-2.3 0.8-3.3 0.5-0.6 0.7-1.4 0.9-2.1 0.1-0.5 0.3-1 0.4-1.5 0.3-1.3 0.9-2.3 1.9-3.2 1.1-1 2-2.2 2.9-3.4 0.6-0.9 1.4-1.5 2.4-1.8 2-0.6 4-1.1 6-1.6 0.7-0.2 1.4 0 1.9 0.6C175.3 163.4 175.8 163.7 176.2 164M127.4 316.1c0 0.8 0.4 1.2 0.7 1.6 1.1 1.1 2.2 2.2 3.2 3.3 2 2 4 3.9 6.4 5.4 1.5 0.9 2.9 1.9 4.5 2.7 2.6 1.3 5.3 2.4 8.2 2.8 1.1 0.1 2.1-0.1 2.9-0.7 0.5-0.4 1-0.8 1.4-1.3 2.6-3.2 4.2-7 5.3-10.9 0.7-2.6 1.1-5.3 1.6-8 0.1-0.8 0.2-1.5-0.1-2.3 -0.2 0-0.4 0-0.6 0 -4.5 1-9.1 2-13.6 2.9 -5.9 1.1-11.8 2.5-17.6 3.7C128.9 315.4 128.2 315.8 127.4 316.1M321.4 227.6c-0.6-0.1-1 0.2-1.3 0.5 -1.1 1.7-2.3 3.3-3.3 5 -1.8 3.2-3.7 6.4-5 9.8 -0.7 1.8-1.5 3.6-2.3 5.4 -0.3 0.7-0.6 1.4-0.4 2.3 0.3-0.1 0.5-0.1 0.6-0.2 0.9-1.1 1.9-2.3 2.8-3.5 1-1.5 1.9-3.1 2.8-4.6 0.9-1.6 1.8-3.2 2.5-4.8 1.3-3 2.4-6 3.6-9C321.6 228.2 321.4 227.8 321.4 227.6M397 392.2c1.8 0.9 3.6 1.7 5.7 1.9 1.9 0.2 3.6 0 5.1-1.3 2.3-2 4.1-4.3 5.4-7 1.7-3.6 3.1-7.4 4.3-11.2 0.9-2.8 1.7-5.6 2.5-8.3 0.7-2.4 1.4-4.8 2.1-7.3 0.2-0.7 0.1-1.6 0.4-2.3 0.9-2.3 1.4-4.7 2-7.1 1.5-5.8 2.9-11.7 4.4-17.5 0.4-1.8 0.8-3.5 1.3-5.3 0.4-1.5 0.6-3.1 1.2-4.5 1.1-3 1.6-6.1 2.5-9.2 1.3-4.6 2.5-9.2 3.7-13.9 0.3-1.1 0.6-2.2 0.9-3.4 0.2-0.7 0.3-1.5 0.6-2.3 1.5-4.7 3.1-9.3 4.7-14 1.2-3.5 2.3-7 3.8-10.4 0.7-1.5 1.3-3 1.9-4.5 0.7-1.7 1.3-3.4 2.1-5 0.8-1.7 1.3-3.5 2.2-5.1 1-1.6 1.6-3.4 2.5-5 1.7-3 3.4-6.1 5.3-9 1.8-2.8 3.7-5.6 5.7-8.3 2.3-3.2 4.7-6.4 7.1-9.4 1.7-2.1 3.5-4 6.2-4.7 0.1 0 0.1 0 0.2-0.1 1.5-0.8 2.6-1.8 2.4-3.6 0-0.4 0-0.8 0.1-1.1 0.8-2.1 0.7-4.3 0.4-6.5 -0.1-1.3-0.5-2.4-1.3-3.4 -0.5-0.7-1-1.3-1.6-2 -1.3-1.5-2.6-3-3.2-5 -0.2-0.9-0.8-1.5-1.8-1.6 -1.2-0.1-2-0.8-2.9-1.5 -0.8-0.7-1.6-1.3-2.4-1.9 -0.6-0.5-1.4-0.8-2.2-0.7 -1.2 0.1-2.3 0.4-3.3 1 -2 1.2-3.4 2.9-4.7 4.9 -1 1.6-2 3.2-3.1 4.7 -2.6 3.5-5.4 7-8 10.4 -0.4 0.6-0.8 1.2-1.3 1.7 -2.1 2.1-3.9 4.5-6.2 6.4 -1.4 1.2-2.6 2.7-4 4 -2.1 2-4.1 3.9-6 6.1 -0.8 0.9-1.6 1.9-2.4 2.8 -1.8 2.1-3.7 4.2-5.5 6.3 -1.3 1.5-2.8 2.9-4.6 3.9 -1.5 0.8-3.1 1.6-4.7 2.2 -2.8 1-5.6 1.8-8.5 2 -2.5 0.2-4.4-0.8-5.5-3.1 -0.5-0.9-0.9-1.8-1.1-2.9 -0.2-1.2-0.4-2.4-0.7-3.6 -0.7-3-1.2-6.1-1.4-9.2 -0.4-6.1-0.5-12.1 0.2-18.2 0.2-1.9 0.4-3.7 0.5-5.6 0.2-2.7-0.2-5.4-0.5-8.1 -0.2-1.9-0.9-3.8-1.9-5.5 -0.7-1.2-1.7-2.4-2.9-3.1 -0.9-0.5-1.7-1.1-2.5-1.8 -0.3-0.3-0.6-0.5-0.9-0.7 -1.2-0.6-2.5-1.1-3.7-1.7 -0.7-0.3-1.5-0.5-2.3-0.3 -1.4 0.3-2.9 0.2-4.2 0.1 -1.3-0.1-2.3 0.3-3.2 1 -0.7 0.5-1.4 1.2-2 1.9 -1.6 1.8-2.7 3.9-4 6 -0.7 1.2-1.4 2.5-2.3 3.6 -2.5 3.1-4.1 6.7-5.6 10.4 -0.6 1.4-1.1 2.9-1.5 4.4 -0.5 1.9-0.9 3.8-1.3 5.7 -0.7 3.3-1.2 6.6-1.3 10 -0.1 2.7 0.2 5.4 0.6 8.1 0.2 1.6 0.5 3.2 0.7 4.8 0.2 2.1 0.8 4.2 1.3 6.3 0.5 1.7 1 3.5 2 5 0.2 0.3 0.2 0.6 0.3 0.9 0.4 0.9 0.8 1.9 1.3 2.8 1.2 2.3 2.8 4.3 4.4 6.4 2.2 2.8 4.7 5.1 7.9 6.7 2.4 1.2 4.8 2.2 7.5 2.5 1.2 0.2 2.5 0.2 3.7 0.4 2.2 0.4 4.4 0.2 6.6-0.1 0.3 0 0.6-0.1 1 0 0.6 0.1 1.3 0.1 1.9 0 1.4-0.1 2.7-0.1 4.1-0.1 0.6 0 1.2 0 1.6 0.6 0.2 0.9-0.2 1.6-0.6 2.4 -0.9 1.9-1.9 3.7-2.8 5.5 -2.2 4.4-4.5 8.7-6.7 13.2 -1.1 2.3-2.2 4.7-3.2 7.1 -1.4 3.4-2.7 6.9-4 10.3 -0.5 1.3-1 2.7-1.4 4 -1 3.2-1.9 6.3-2.7 9.5 -1.1 4-2.1 8-3.3 12 -0.6 2.1-1.2 4.1-1.8 6.1 -1 3.3-1.7 6.8-3 10 -0.1 0.2-0.1 0.4-0.1 0.6 -0.8 3.3-1.5 6.6-2.3 9.8 -0.2 1.1-0.4 2.2-0.6 3.2 -0.2 1.3-0.4 2.7-0.5 4 -0.1 0.8 0 1.6 0.2 2.3 1.1 3.9 3.3 7 6.6 9.4 0.9 0.6 1.5 1.3 2.1 2.2 1.4 2 3.2 3.6 5.4 4.6 0.4 0.2 0.8 0.4 1.2 0.7 0.8 0.8 1.8 1.1 3 1.2 1.4 0.2 2.7-0.1 3.9-0.8 0.1-0.1 0.4 0 0.5-0.1 0.1 0.3 0.3 0.5 0.4 0.7 0.7 0.2 1.2-0.7 1.8-0.1 -0.1 0.3-0.1 0.6-0.2 1 1.1-0.1 2 0.2 2.5 1.2 -0.2 0.3-0.3 0.7-0.5 1.1C396.8 392 396.9 392.1 397 392.2M565.9 99c0.5-2.5-0.4-4.6-2.1-6.3 -0.2-0.2-0.4-0.3-0.6-0.5 -2.2-1.3-4.4-1.3-6.7-0.4 -1.1 0.4-2.3 1-3.4 1.5 -0.6 0.3-1.3 0.6-1.9 0.9 -4.4 2.6-8.1 6-11.4 9.9 -1.3 1.6-2.7 3.1-3.7 5 -1.1 2.2-2.6 4.2-3.9 6.2 -1.3 2.1-3 3.9-4 6.2 -0.4 0.9-1.2 1.5-1.7 2.3 -0.6 0.8-1.3 1.6-1.7 2.6 -0.3 0.8-0.6 1.5-1.1 2.2 -1 1.6-1.9 3.2-2.5 5 -0.1 0.4-0.3 0.7-0.5 1.1 -1.1 2.6-2.4 5.2-3.3 7.9 -1.5 4.2-3.1 8.4-4.6 12.6 -1.1 3-2 6-3 9 -0.9 3-1.8 6.1-2.6 9.1 -0.9 3.1-1.7 6.2-2.6 9.3 -1.1 3.7-2.4 7.3-3.1 11 -0.4 1.7-0.8 3.4-1.2 5.1 -0.4 1.7-0.8 3.4-1.3 5.1 -0.9 2.9-1.7 5.8-2.4 8.8 -0.7 2.9-1.5 5.9-2.3 8.8 -0.9 3.6-2 7.2-2.8 10.9 -0.9 4.3-1.9 8.6-3.1 12.8 -0.5 1.7-1 3.3-1.9 4.9 -0.6 1.1-1.2 2.3-1.7 3.5 -1 1.9-2.4 3.5-3.8 5.2 -1.8 2.1-2.8 4.5-3.4 7.1 -0.3 1.4-0.4 2.8-0.2 4.2 0.5 2.3 0.9 4.7 1.4 7 0.3 1.4 1 2.5 2.1 3.4 0.6 0.5 1.3 1.1 1.8 1.8 0.8 1.2 1.8 2 3 2.7 0.7 0.4 1.4 0.9 2.1 1.4 0.4 0.2 0.8 0.5 1.2 0.7 2 0.9 4.1 1.7 6.1 2.6 2 0.9 4.1 1.3 6.2 1.4 0.6 0 1.1 0.1 1.7 0.2 0.8 0.2 1.6 0.3 2.5 0.5 1.4 0.2 2.7 0.1 4.1-0.1 2.2-0.3 3.7-1.8 5-3.4 0.7-0.8 1.2-1.8 1.5-2.9 0.8-3 1.1-6 0.6-9 -0.3-1.7-0.5-3.5-0.6-5.2 -0.2-3-0.3-5.9-0.4-8.9 -0.1-1.7-0.2-3.5-0.1-5.2 0.1-2.6 0.3-5.3 0.6-7.9 0.2-2.1 0.4-4.1 0.7-6.2 0.2-1.9 0.6-3.7 0.8-5.6 0.3-2.2 0.6-4.5 0.9-6.7 0.7-4.1 1.5-8.3 2.5-12.3 1-3.9 1.9-7.8 3-11.6 0.9-2.8 1.9-5.6 2.8-8.4 1.7-5 3.8-9.8 5.7-14.6 1.2-3.1 2.9-6.1 4-9.2 0.1-0.2 0.2-0.3 0.3-0.5 1.5-2.9 2.9-5.8 4.4-8.6 0.9-1.7 1.7-3.5 2.7-5.2 1.5-2.7 2.9-5.3 4.4-7.9 1.4-2.5 2.7-5 4-7.5 1.1-2.2 2.3-4.3 3.4-6.5 0.9-1.7 1.6-3.4 2.5-5 0.8-1.6 1.7-3.1 2.4-4.7 1.5-3.4 2.8-6.8 4.2-10.2 0.8-2.1 1.6-4.2 2.3-6.4 0.4-1.1 0.4-2.3-0.3-3.3 -0.1-0.2-0.2-0.5-0.3-0.7 0.2-1 0.5-2 0.7-3.1 -0.6-0.7-0.7-1.7-1.7-2.4C565.6 100.9 565.7 99.9 565.9 99M519.7 424.2c0.2-0.2 0.5-0.5 0.7-0.7 -0.2-0.3-0.5-0.5-0.6-0.8 0-0.5 0.2-1.1 0.1-1.5 -0.2-0.9-0.2-1.6 0.3-2.4 0.5-0.8-0.3-1.6 0-2.4 0.3-0.7 0.4-1.4 0.5-2.1 0.1-0.3 0.1-0.7 0-0.9 -0.2-0.5-0.1-1 0.2-1.5 1.3-3 2.6-6.1 4.7-8.6 0.4-0.5 0.7-1.1 1.1-1.6 0.1-0.2 0.4-0.4 0.1-0.7 -0.4 0.3-0.8 0.6-1.2 0.9 -2.2 1.8-4.5 3.5-6.7 5.3 -0.5 0.4-1 0.8-1.5 1.2 -1.8 1.8-3.4 3.7-4.8 5.8 -1.1 1.7-2.5 3.2-3.7 4.8 -1.8 2.3-3.1 4.9-4.3 7.6 -0.4 1-0.7 2.1-1.1 3.1 -0.5 1.1-1 2.1-1.5 3.1 -0.2 0.5-0.4 0.9-0.6 1.4 -0.5 1.7-0.9 3.3-1.4 5 -0.3 0.9-0.5 1.9-0.8 2.8 -0.4 1-0.8 2-1.2 3.1 -0.6 1.8-1.4 3.6-2.3 5.3 -0.1 0.3-0.4 0.6-0.6 0.7 -0.9 0.2-1.2 1.1-1.7 1.7 -0.4 0-0.6 0-0.9-0.1 -0.4 1-0.8 1.9-1.2 2.8 -0.8 2-0.8 2-1.7 2.8 -0.1-0.4-0.4-0.9-0.4-1.3 -0.2-1.9-0.3-3.7-0.4-5.6 -0.1-2.5-0.1-4.9-0.3-7.4 -0.2-2.8-0.5-5.5-0.8-8.3 -0.1-1.2-0.1-2.3-0.4-3.5 -0.6-3.4-1.2-6.9-2.2-10.2 -0.8-2.7-1.7-5.3-2.9-7.8 -2.4-4.8-5.4-9.3-9.5-12.9 -1.7-1.5-3.5-3-5.4-4.5 -1.4-1.1-3-1.7-4.8-1.8 -3.4-0.3-6.6 0.3-9.8 1.2 -0.5 0.1-0.9 0.4-1.4 0.7 -1.1 0.7-1.7 1.7-2.5 2.7 -1 1.3-1.9 2.8-3 4 -2 2.1-3.7 4.3-5.5 6.5 -0.1 0.2-0.4 0.4 0 0.7 1.2-0.5 1.9-1.6 2.7-2.6 0.6-0.7 1.2-1.3 1.9-1.9 0.2-0.2 0.4-0.3 0.7 0 -0.5 2.1-1.6 4-2.5 6 -0.4 0.8-0.8 1.6-1.3 2.3 -0.5 0.7-1.2 1.4-1.6 2.1 -0.6 1-1.2 2-1.8 3 -0.5 0.8-0.9 1.7-1.3 2.6 -0.3 0.5-0.7 1.1-0.7 1.8 1-1 1.9-1.9 2.8-2.8 0.3 0.2 0.7 0.3 1 0.5 0.3-0.1 0.6-0.3 0.9-0.4 0.3-0.1 0.6-0.3 0.8 0.2 -1.7 2.9-3.4 5.9-5.5 8.5 -0.3 0.4-0.6 0.8-0.9 1.3 -0.1 0.1 0 0.3 0 0.7 0.3-0.2 0.5-0.3 0.7-0.5 0.4-0.5 0.6-1.3 1.4-1.5 0.1 0 0.3-0.3 0.3-0.5 0.3-1.3 1.5-1.7 2.3-2.6 0.3-0.3 0.9-0.3 1.4-0.4 0.4 0.4 0.8 0.8 1.2 1.2 -1.6 0.9-1.6 0.9-1.7 2.5 0.8 0.5 1.3-0.9 2.2-0.3 -1 1.1-1.9 2.3-2.9 3.4 0.3 0.3 0.5 0.5 0.7 0.7 0.2-0.1 0.3-0.1 0.4-0.2 1-1.6 2.4-2.9 3.7-4.2 0.6-0.7 1.2-1.3 1.9-2 0.5-0.5 1.1-0.7 1.7-0.5 1.1 1.2 1.5 2.7 1.9 4.2 0 0.1 0.2 0.1 0.3 0.2 0.3-0.3 0.7-0.7 1-1 0.2 0.2 0.4 0.2 0.4 0.3 0.1 0.6 0.2 1.2 0.1 1.7 -0.1 0.7 0.7 0.9 0.8 1.5 0.1 0.4 0.1 0.8 0.1 1.2 -0.2 2.8 0.1 5.7-0.8 8.5 -0.1 0.2 0 0.5 0.1 0.7 0.5 1 0.4 2 0.1 3 -0.3 1.4 0.2 2.8-0.1 4.2 -0.1 0.3 0.2 0.7 0.3 1.1 0.1 0.2 0.3 0.4 0.2 0.5 -0.4 0.6 0.2 1.1 0.1 1.6 -0.1 0.6-0.2 1.3-0.4 1.9 -0.1 0.4-0.3 0.9-0.3 1.3 0 2.3-0.3 4.6-0.6 7 -0.1 0.5-0.2 1.2 0.1 1.5 0.7 1 0.4 2 0.5 3 0 0.5-0.2 1.2-0.5 1.6 -0.8 1-0.8 2.1-0.7 3.3 0.3 0.1 0.5 0.3 0.7 0.3 0.3 0.1 0.2 0.7 0.7 0.4 0-0.5 0-1 0.1-1.5 0.1-0.5-0.2-1.1 0.5-1.7 0.1 0.4 0.1 0.7 0.2 0.9 0.1 1.9 0.2 3.7 0.2 5.6 0 1.6-0.1 3.1-0.2 4.7 0 0.8 0.1 0.9 1.2 1.1 0.1-0.6 0.1-1.1 0-1.7 -0.4-1.9-0.8-3.8-0.4-5.7 0-0.3 0-0.5 0.5-0.5 0.3 1.2 0.7 2.5 0.9 3.7 0.1 0.7 0.2 1.4 0.9 1.8 0.2 0.1 0.3 0.5 0.4 0.8 0.3 0.6 0.6 1.3 0.9 1.9 0.2 0.5 0.4 0.9 0.6 1.4 1.1 2.3 2.1 4.6 4 6.3 0.5 0.4 0.8 0.8 1.5 0.6 1 0.5 1.8 1.2 2 2.4 -0.3 0.7-0.6 1.4-0.9 1.9 -0.7 0.3-0.9-0.6-1.5-0.2 0.4 1 1.2 1.6 2 2.1 0.2 0.1 0.6 0.3 0.3 0.8 -1.4-0.7-3-1.2-3.8-2.8 -0.1-0.2-0.7-0.3-1-0.4 -0.3-0.1-0.6 0.4-0.5 0.7 0.1 0.3 0.3 0.6 0.5 0.8 0.7 0.7 1.4 1.3 2 1.9 -0.1 0.6-0.4 1.1-0.3 1.4 0.3 0.7 0.8 1.4 1.8 1.6 0-0.5 0.1-1 0.1-1.6 1.1 0.3 2.1 0.6 3.1 0.9 0.3-0.4 0.5-0.7 0.8-1.1 0.7 0.3 1.3 0.6 1.9 0.7 0.7 0.1 1.4 0.3 2 0.6 0.8 0.3 1.6 0.6 2.4 0.8 0.1 0 0.2 0 0.5-0.1 0.2-0.2 0.4-0.5 0.6-0.8 -0.6-1.2-1.9-0.5-2.6-1.2 0.1-0.4 0.1-0.8 0.2-1.1 -0.7-0.3-1.3-0.4-1.9-0.7 -0.3-0.1-0.7-0.4-0.4-0.9 0.9-0.2 1.6 0 2.4 0.5 0.9 0.5 1.7 1.3 2.8 1.2 1.3-0.9 1.3-0.9 2.9-1 0.8 0 1.6 0 2.3-0.1 1-0.2 1.9-0.4 2.8-0.7 2.8-0.6 5.2-1.9 7.4-3.6 0.6-0.5 1.3-0.9 2-1.1 0.3-0.1 0.6-0.2 0.7-0.5 0.3-0.9 0.9-0.4 1.5-0.2 0.4-0.3 0.7-0.6 1.1-0.9 -0.1-0.4-0.2-0.7-0.3-1.1h1.6c0.2-0.5 0.4-1 0.6-1.5 1-0.3 1-1.3 1.5-1.9 0.2-0.2 0.3-0.5 0.6-0.5 0.8-0.1 1-0.8 1.3-1.3 0.5-0.8 0.8-1.6 1.3-2.3 1.6-2.1 2.9-4.3 4.1-6.6 1.5-3 2.9-6 4-9.3 0.4-1.2 0.8-2.3 1.3-3.5 0.7-1.4 0.9-3 1-4.5 0.1-0.8 0.1-1.5 0.5-2.3 0.2-0.5 0.3-1.1 0.2-1.7 -0.2-0.9-0.2-1.8 0.5-2.5 0.3-0.3 0.3-0.8 0.3-1.3 0-0.7-0.1-1.4-0.1-2.1 -0.4-0.1-0.6-0.2-0.8-0.3 0.1-0.7 0.4-1.3 0.3-1.8 -0.2-0.9 0-1.7 0.2-2.5 0.3-1 0.5-2 0.8-3 0.1-0.2 0.1-0.5 0.3-0.7 1-0.8 0.8-1.7 0.2-2.6 -0.3-0.4-0.4-0.8-0.3-1.3 0-0.1 0.2-0.2 0.2-0.2 0.4 0.1 0.8 0.3 1.1 0.4 0.3-0.6 0.1-1.1-0.2-1.3 -0.7-0.5-0.6-1-0.3-1.7 0.3-0.8 0.5-1.7 1-2.2 0.8-0.8 0.7-1.6 0.7-2.5 0-0.2 0.2-0.3 0.3-0.5 0.2-0.3 0.4-0.7 0.5-1 -0.2-0.5-0.4-1-0.6-1.4 1-0.9 1-0.9 1.6-2.5C520.6 424.6 519.7 425 519.7 424.2M461.2 313.3c0.2 0.8 0.3 1.8 0.1 2.6 -0.2 0.9-0.2 1.7 0 2.6 0.5 2.6 0.8 5.2 1.2 7.9 0.2 1.3 0.8 2.3 1.5 3.3 0.4 0.5 0.7 0.9 1.1 1.4 0.8 1.2 1.5 2.4 2.4 3.5 0.4 0.6 1 1 1.5 1.5 0.3 0.3 0.6 0.5 0.9 0.7 1.5 1.4 3.1 2.7 5 3.7 1 0.5 2 0.9 3 1.4 4.2 2.3 8.7 3.5 13.5 3.8 2.9 0.2 5.8 0.1 8.6-1 1.7-0.7 3.4-1.3 5-2 0.2-0.1 0.4-0.3 0.6-0.5 1.2-1.2 2.9-1.7 4.3-2.6 1 0.2 1.6-0.4 2.2-1 0.2-0.2 0.5-0.4 0.8-0.5 0.7-0.2 1.2-0.7 1.7-1.3 1.4-1.9 2.9-3.8 3.7-6.1 0.2-0.7 0.3-1.4 0.5-2.1 0.3-1-0.6-2-0.2-3 0-0.1-0.5-0.4-0.6-0.7 -0.1-0.5 0-1-0.1-1.5 -0.1-0.5-0.7-0.8-0.6-1.4 0-0.1 0-0.1 0-0.2 0.3-0.6 0.1-1.1-0.1-1.7 -0.3-0.8-0.5-1.6 0-2.4 0.2-0.4 0.2-1-0.2-1.3 -0.6-0.6-0.7-1.4-1-2.1 -0.4-0.8-0.6-1.7-1.4-2.3 -1.1-0.7-2.2-1.5-3.4-2.3 -0.7-0.5-1.4-0.9-1.8-1.7 -0.2-0.3-0.5-0.6-0.8-0.8 -1.6-1-3.2-1.9-4.8-2.9 -2.1-1.3-4.6-1.7-6.8-2.8 -0.2-0.1-0.4-0.1-0.6-0.1 -3.1-0.7-6.1-1.6-9.1-2.5 -2.2-0.7-4.4-1.6-6.6-2.2 -3.4-1-7-1.2-10.5-1.8 -1.4-0.2-2.8-0.1-4.3 0 -1.3 0.1-2.6 0.4-3.5 1.4 -0.7 0.8-1.6 1.2-2.6 1.7 -1.1 0.6-2.3 1.1-3.4 1.9 -1.4 1-1.5 1.7-0.4 3 0.2 0.2 0.5 0.4 0.7 0.7 0.8 0.9 1.7 1.8 1.8 3.1 0.1 0.9 0.7 1.4 1.4 1.7 0.3 0.2 0.7 0.3 1 0.5 0.3 0.2 0.5 0.6 0.7 0.9 -0.7 0.6-1.4 0.9-1.5 1.9C460.5 312.4 461 312.8 461.2 313.3M156.6 372.8c-0.6 0.1-1.3 0.5-1.6 0.3 -0.8-0.4-1.7-0.1-2.5-0.5 -0.6-1.1-1.1-2.3-2.4-2.7 -1.4 0.7-2.7 1.3-3.8 2.4 -0.7 0.7-1.6 1.1-2.6 1.2 -1.7 0.2-2.9 1.1-3.8 2.4 -1 1.4-2.2 2.6-3.4 3.6 -0.8 0.7-1.4 1.5-1.7 2.5 -0.3 1.1-0.8 2.3 0.5 3.2 0.1 0.1 0.2 0.2 0.2 0.3 0.3 0.5 0.3 1-0.1 1.4 -0.5 0.5-1 1-1.7 1.2 -1.1 0.3-1.5 1.2-1.5 2.2 0 0.3 0 0.6 0.1 1 0.1 1 0.3 2 0.4 2.9 1.6 1.9 3.7 1.9 5.9 1.9 0.5 0.9 1.4 1.3 2.3 1.5 0.6 0.1 1.3 0.2 1.9 0.4 0.4 0.1 0.9 0.1 1.1 0.3 0.8 0.9 1.8 0.9 2.8 1 0.7 0.1 1.4 0.2 2.1 0.4 1.7 0.4 3.4 0.5 5.1-0.3 0.4-0.2 0.9-0.3 1.3-0.4 1-0.4 2.1-0.7 3-1.4 1.7-1.2 3.4-2.3 5.3-3.2 0.7-0.3 1.4-0.7 1.8-1.4 0.6-0.9 1.5-1.4 2.5-1.6 0.4-0.1 0.8-0.3 1.2-0.4 0.1-0.3 0.1-0.6 0.1-0.9 0.5-1.7 0.5-3.3-0.5-4.8 -0.4-0.5-0.5-1.2-0.6-1.8 -0.1-0.6-0.1-1.2-0.1-1.8 -0.4-0.1-0.9 0.1-1.1-0.4 -0.3-0.7-0.8-1.1-1.5-1.4v-1.8c-0.6 0.1-1.1 0.2-1.6 0.2 -0.7-0.1-0.4-1-0.9-1.4 -1.5 0-2.3-0.9-2.6-2.3C158.5 374.6 157.5 373.7 156.6 372.8M431.6 437.5c1.3-0.7 2.4-1.4 2.1-3.4C431.8 436.3 431.8 436.3 431.6 437.5M403.9 207.6c-0.5-0.1-1 0.5-1 1.2 0 0.4 0.4 0.7 0.8 0.7 0.6 0 1-0.4 1-0.9C404.7 208.1 404.3 207.7 403.9 207.6M487 508.5c0.5-0.5 0.7-0.8 0-1.6V508.5zM431.9 439.5c0.4 0 0.8-0.4 0.7-0.7 0-0.1-0.3-0.2-0.3-0.2 -0.2 0.2-0.4 0.4-0.6 0.6 0 0 0 0.1 0 0.1C431.8 439.5 431.9 439.5 431.9 439.5M430.3 434.9c-0.2 0.1-0.3 0.4-0.4 0.6 0 0.1 0.1 0.2 0.2 0.3 0.1 0 0.3 0 0.3 0 0.2-0.2 0.3-0.4 0.4-0.7C430.5 435 430.3 434.9 430.3 434.9M437 435.1c-0.1 0.1 0 0.4 0 0.8 0.6-0.4 1-0.6 1-1.2C437.5 434.6 437.2 434.9 437 435.1M435.9 437.5c0 0 0-0.2 0-0.2 -0.1 0-0.3-0.1-0.3 0 -0.2 0.2-0.5 0.4-0.3 0.9C435.5 437.9 435.7 437.7 435.9 437.5M304.2 529.8c-0.2 0-0.4 0.2-0.6 0.3 0.1 0.2 0.2 0.5 0.3 0.5 0.3 0 0.5-0.1 1-0.2C304.5 530.1 304.4 529.8 304.2 529.8M410.1 423.2c-0.2-0.2-0.3-0.3-0.5-0.4 0 0-0.2 0.2-0.4 0.3 0.1 0.1 0.3 0.3 0.4 0.4C409.9 423.3 410 423.2 410.1 423.2M111.1 322.2c-0.1 0-0.3 0.1-0.3 0.2 -0.1 0.2 0.3 0.6 0.6 0.5 0.1 0 0.1-0.2 0.3-0.4C111.5 322.4 111.3 322.3 111.1 322.2M434.9 426.1c0.4 0.1 0.5 0 0.6-0.4 -0.2 0.1-0.4 0.3-0.6 0.4L434.9 426.1zM434.9 426.1c-0.1 0.3-0.2 0.6-0.2 0.9 0 0 0.1 0 0.1 0 0.1-0.3 0.1-0.6 0.2-0.9C434.9 426.1 434.9 426.1 434.9 426.1M263.7 341.1c-0.1-0.1-0.1-0.3-0.2-0.4 0 0-0.3 0.1-0.3 0.1 0 0.1 0 0.3 0.1 0.4C263.5 341.2 263.6 341.2 263.7 341.1M300.1 410.1c0 0 0 0.1-0.1 0.1 0.1 0 0.2 0.1 0.3 0.1 0 0 0-0.1 0.1-0.1C300.3 410.2 300.2 410.1 300.1 410.1M433.4 441c0-0.1-0.1-0.2-0.1-0.3 -0.1 0.1-0.2 0.1-0.3 0.2 0 0.1 0.1 0.2 0.1 0.3C433.2 441.1 433.3 441.1 433.4 441M437.2 439.5c0-0.2 0.1-0.4 0.1-0.5 0-0.1-0.1-0.2-0.2-0.2 0 0.1-0.2 0.2-0.1 0.3 0.1 0.2 0.2 0.3 0.3 0.5C437.2 439.5 437.2 439.5 437.2 439.5M193.9 432.2c0.1 0.1 0.2 0.2 0.3 0.3 0 0 0.1 0 0.2 0 0-0.1-0.1-0.2-0.1-0.2 -0.1 0-0.3 0-0.4 0L193.9 432.2zM107.3 310.1c0 0.1 0.1 0.2 0.1 0.3 0 0 0.1-0.1 0.1-0.1 0-0.1-0.1-0.2-0.1-0.3C107.4 310 107.3 310 107.3 310.1M254.4 527.6l-0.1 0 0 0.2L254.4 527.6zM439.3 423.4c0 0 0.1 0.1 0.1 0.1 0 0 0.1-0.1 0.1-0.1 0-0.1-0.1-0.2-0.1-0.3C439.4 423.2 439.4 423.3 439.3 423.4M193.9 432.3c0-0.1-0.1-0.2-0.1-0.3 -0.1 0.1-0.1 0.1-0.2 0.2 0.1 0 0.2 0.1 0.3 0.1C193.9 432.2 193.9 432.3 193.9 432.3M431.9 432.8c0.1 0 0.1 0.1 0.2 0.1 0 0 0-0.1 0-0.1C432 432.7 431.9 432.7 431.9 432.8M337.4 421.5c0-0.1 0-0.2-0.1-0.4 -1 0.6-1.4 1.5-0.9 2.8C336.8 423.2 337.1 422.3 337.4 421.5M333.1 432.6c0.1-0.1 0.2-0.1 0.3-0.2 0-0.1-0.1-0.2-0.1-0.3 0 0-0.1 0.1-0.1 0.1 0 0.1 0 0.2 0 0.4C333.2 432.7 333.1 432.6 333.1 432.6"/></svg>
